<?xml version="1.0" encoding="UTF-8" standalone="no"?>
<!-- Created with Inkscape (http://www.inkscape.org/) -->

<svg
   xmlns:dc="http://purl.org/dc/elements/1.1/"
   xmlns:cc="http://creativecommons.org/ns#"
   xmlns:rdf="http://www.w3.org/1999/02/22-rdf-syntax-ns#"
   xmlns:svg="http://www.w3.org/2000/svg"
   xmlns="http://www.w3.org/2000/svg"
   xmlns:sodipodi="http://sodipodi.sourceforge.net/DTD/sodipodi-0.dtd"
   xmlns:inkscape="http://www.inkscape.org/namespaces/inkscape"
   version="1.1"
   id="svg997"
   width="1448"
   height="576"
   viewBox="0 0 1448 576"
   sodipodi:docname="main-nextu.svg"
   inkscape:version="0.92.2 (5c3e80d, 2017-08-06)">
  <metadata
     id="metadata1003">
    <rdf:RDF>
      <cc:Work
         rdf:about="">
        <dc:format>image/svg+xml</dc:format>
        <dc:type
           rdf:resource="http://purl.org/dc/dcmitype/StillImage" />
        <dc:title></dc:title>
      </cc:Work>
    </rdf:RDF>
  </metadata>
  <defs
     id="defs1001" />
  <sodipodi:namedview
     pagecolor="#ffffff"
     bordercolor="#666666"
     borderopacity="1"
     objecttolerance="10"
     gridtolerance="10"
     guidetolerance="10"
     inkscape:pageopacity="0"
     inkscape:pageshadow="2"
     inkscape:window-width="1853"
     inkscape:window-height="1019"
     id="namedview999"
     showgrid="false"
     inkscape:zoom="0.8128453"
     inkscape:cx="724"
     inkscape:cy="288"
     inkscape:window-x="67"
     inkscape:window-y="27"
     inkscape:window-maximized="1"
     inkscape:current-layer="svg997" />
  <g
     id="g1007">
    <path
       style="fill:#fdfdfd;stroke-width:1.33333337"
       d="M 0,288 V 0 h 724 724 V 288 576 H 724 0 Z"
       id="path1027"
       inkscape:connector-curvature="0" />
    <path
       style="fill:#e7e7e7;stroke-width:1.33333337"
       d="M 0,288 V 0 h 724 724 V 288 576 H 724 0 Z m 1065.3333,219.789 c 10.3226,-3.19408 16.0186,-13.49225 11.3792,-20.57292 -3.1493,-4.80639 -8.8387,-6.74044 -22.5087,-7.65161 -6.4879,-0.43246 -12.5731,-1.43103 -13.5226,-2.21906 -2.4244,-2.01206 -3.1428,-5.59 -1.8333,-9.13002 1.0429,-2.81928 1.6355,-2.95978 8.9791,-2.12895 9.795,1.10817 16.2471,-0.87164 20.9134,-6.41724 3.084,-3.66508 3.4414,-5.10311 3.0436,-12.24433 -0.4435,-7.96334 -0.3926,-8.09822 3.216,-8.51343 2.4842,-0.28584 3.6667,-1.19511 3.6667,-2.81944 0,-2.12793 -1.8542,-2.50316 -16.489,-3.33692 -13.1902,-0.75144 -17.4373,-0.54311 -21.2296,1.0414 -8.505,3.55361 -12.5083,14.13112 -8.437,22.29221 2.7306,5.4737 2.7113,5.92136 -0.5449,12.64788 -2.7826,5.74806 -2.4741,8.35072 1.6973,14.31942 1.4122,2.02072 1.2176,2.74065 -1.2617,4.66666 -6.5349,5.07662 -6.5192,13.9549 0.032,18.24762 6.8876,4.5129 21.5692,5.32453 32.8992,1.81873 z m -20.4185,-3.74271 c -5.7046,-1.8163 -7.5815,-3.9562 -7.5815,-8.6438 0,-6.75872 4.5356,-10.06916 13.7955,-10.06916 4.1929,0 9.7414,0.8849 12.3298,1.96643 4.3208,1.80531 4.6723,2.36801 4.2906,6.86755 -0.2864,3.37488 -1.4539,5.66658 -3.7492,7.35924 -3.939,2.90473 -13.7909,4.20544 -19.0852,2.51974 z m -2.0157,-45.79889 c -3.8541,-4.10247 -3.9202,-12.5896 -0.1357,-17.40092 2.2496,-2.8598 3.8726,-3.51315 8.7273,-3.51315 10.585,0 15.6004,8.82155 10.5586,18.57131 -2.2732,4.39596 -4.4152,5.42869 -11.2593,5.42869 -3.4939,0 -5.8617,-0.92598 -7.8909,-3.08593 z m -289.31698,26.26816 c 1.97016,-1.00645 3.95557,-2.4342 4.41201,-3.17275 1.58612,-2.5664 5.8056,-1.44697 6.24647,1.65719 0.30507,2.14801 1.46739,3.11981 4.09273,3.42189 L 772,486.84379 v -38.08856 -38.08856 h -4.61059 -4.61057 L 762.38941,421 762,431.33333 l -10.04633,0.81735 c -19.99543,1.62679 -27.50742,10.44599 -26.37146,30.96056 0.70066,12.65324 3.87964,19.13047 10.98331,22.37867 5.74151,2.62536 10.50393,2.35266 17.0166,-0.97435 z m -13.96471,-8.42111 c -8.04532,-9.56133 -4.96849,-31.28745 5.07924,-35.8655 4.45887,-2.0316 14.32343,-2.00887 16.37002,0.0377 1.03473,1.03473 1.6,6.39189 1.6,15.16352 v 13.56352 l -5.97022,5.50315 c -7.42784,6.84674 -12.28024,7.30064 -17.07904,1.5976 z M 843,485.82349 c 2.58901,-0.4957 3.66667,-1.51092 3.66667,-3.45422 0,-2.59202 -0.52483,-2.70343 -9.0169,-1.91418 -4.95928,0.46092 -11.22072,0.22954 -13.91429,-0.5142 -6.56968,-1.81398 -12.00327,-8.34681 -11.47273,-13.79374 L 812.66667,462 831,461.62904 l 18.33333,-0.37096 -0.0219,-6.96237 c -0.0273,-8.68058 -4.15414,-16.3809 -10.62394,-19.82358 -6.56073,-3.49106 -17.54733,-3.28354 -24.20301,0.45715 -11.15631,6.2702 -15.92475,26.41163 -9.42944,39.82912 5.46308,11.28523 17.88157,14.90657 37.94499,11.06509 z m -30.3244,-32.4757 c -1.66344,-2.6915 0.87201,-9.29104 4.85805,-12.64508 6.85136,-5.76503 17.78658,-3.44839 21.06328,4.46228 3.2804,7.91957 2.12675,8.79304 -12.17132,9.21533 -8.03544,0.23732 -13.20512,-0.15088 -13.75001,-1.03253 z m 102.26589,30.51201 c 6.02506,-3.07376 7.72518,-5.97196 7.72518,-13.16915 0,-7.07538 -3.8224,-10.7406 -14.60632,-14.00572 C 896.09009,453.06064 892,450.18253 892,445.38367 c 0,-6.5188 4.63599,-8.60216 16.70764,-7.50827 9.26908,0.83995 9.95903,0.72376 9.95903,-1.67715 0,-3.4579 -2.46411,-4.20362 -13.77572,-4.16897 -10.6126,0.0325 -19.68083,3.21823 -22.11671,7.76971 -2.28373,4.26721 -1.69393,11.51972 1.24019,15.24984 1.76237,2.24049 6.27846,4.60649 13.17937,6.9047 11.52799,3.83918 14.8062,6.44822 14.8062,11.78388 0,6.95971 -13.18047,9.5396 -27.77292,5.43616 -2.79555,-0.78612 -3.06228,-0.4884 -2.66667,2.97647 0.40383,3.53675 0.98196,3.91868 7.10626,4.69457 9.52137,1.20628 20.50546,-0.0415 26.27482,-2.98481 z M 1000,483.39987 c 0,-3.04171 -0.52823,-3.29435 -7.66667,-3.66667 l -7.66666,-0.39987 -0.36482,-23 -0.36482,-23 h -13.30184 c -12.30459,0 -13.30186,0.19516 -13.30186,2.60304 0,2.26184 1.09234,2.65508 8.33334,3 L 974,439.33333 v 20 20 l -8.33333,0.39696 c -7.84884,0.37388 -8.33334,0.58706 -8.33334,3.66667 v 3.26971 H 978.66667 1000 Z m 116,-14.78483 V 450.5634 l 5,-5.28485 c 6.1582,-6.50907 11.7397,-7.93176 16.3832,-4.17594 3.2066,2.59371 3.2934,3.158 3.7085,24.10996 l 0.4251,21.4541 h 4.5749 4.575 v -20.7095 c 0,-22.34365 -1.1775,-27.82898 -6.8225,-31.78292 -4.7926,-3.35686 -14.2895,-2.81005 -20.1306,1.15908 -5.945,4.03975 -9.0469,4.26834 -9.0469,0.66667 0,-1.95556 -0.8889,-2.66667 -3.3334,-2.66667 H 1108 V 460 486.66667 h 4 4 z M 984.09027,418.49801 c 2.51849,-4.70585 -0.36126,-9.16468 -5.91903,-9.16468 -4.58248,0 -6.17124,1.67574 -6.17124,6.50906 0,5.72704 9.34764,7.78025 12.09027,2.65562 z M 591.14088,352.55309 c 11.57228,-2.98554 25.35736,-10.58733 34.42851,-18.98561 10.39269,-9.62181 11.76394,-8.9546 11.76394,5.72401 v 11.37518 h 18 18 L 673.3136,281 c -0.0215,-75.81157 -0.36143,-79.99008 -7.58873,-93.26903 -10.44596,-19.19265 -29.69311,-27.50765 -66.39156,-28.68192 -23.54927,-0.75352 -44.20248,1.84834 -62.66667,7.89464 L 527.33331,170 l -0.37235,16.08109 -0.37235,16.08111 13.0487,-4.35868 c 19.09606,-6.37871 35.43858,-8.88073 53.02933,-8.11875 15.74165,0.6819 21.32887,2.34548 28.69544,8.54404 6.80419,5.72535 9.24132,12.57778 9.27528,26.07912 0.0277,11.00682 -0.13423,11.6758 -2.97072,12.27507 -1.65,0.3486 -14.1,0.88799 -27.66667,1.19865 -19.66114,0.45023 -26.83121,1.14278 -35.33333,3.4128 -24.21519,6.46534 -39.82999,17.362 -47.65409,33.25502 -3.81287,7.74504 -4.34962,10.2418 -4.75951,22.14 -0.36799,10.68136 0.0852,15.1442 2.22705,21.9294 5.2279,16.56176 15.88867,27.5692 32.0297,33.07125 10.99685,3.74853 32.07141,4.20324 44.63106,0.96297 z m -18.30785,-31.84524 c -6.58316,-2.34656 -13.68355,-9.20485 -15.6273,-15.09448 -2.4742,-7.4969 -0.89845,-18.20564 3.62616,-24.64338 8.01355,-11.4019 24.94576,-16.17707 54.50144,-15.37032 L 630,266 l 0.376,14.89307 0.376,14.89306 -11.04267,9.61483 c -18.33117,15.96092 -32.27121,20.51287 -46.8763,15.30689 z m -388.97391,20.10028 c 6.86021,-6.88885 12.12164,-13.0939 11.69205,-13.789 -0.42958,-0.69509 -20.90434,-17.99241 -45.49945,-38.4385 -25.19141,-20.9418 -44.71839,-38.12232 -44.71839,-39.3448 0,-1.2337 19.5613,-18.1977 45.33334,-39.31408 C 175.6,189.49256 196,172.44151 196,172.03053 c 0,-0.41097 -5.90615,-6.63121 -13.12476,-13.82274 l -13.12476,-13.07551 -61.20857,51.51633 c -33.664718,28.33399 -61.390737,52.02571 -61.613377,52.64827 -0.478426,1.3378 120.987737,104.03645 123.048437,104.03645 0.77496,0 7.02194,-5.63633 13.88215,-12.5252 z M 1316.643,301.46317 c 33.4273,-28.16192 60.6074,-51.62477 60.4003,-52.13969 -0.292,-0.72573 -110.4566,-93.71069 -121.6162,-102.65071 -2.316,-1.85541 -3.355,-1.07121 -14.958,11.29058 -6.858,7.30646 -12.4691,13.66128 -12.4691,14.12181 0,0.46052 20.4,17.76073 45.3333,38.44489 24.9334,20.68418 45.3334,38.45076 45.3334,39.48132 0,1.03056 -20.0772,18.42 -44.616,38.6432 -24.5388,20.22322 -45.0136,37.41272 -45.4995,38.19892 -1.0707,1.73239 23.4497,26.69382 25.7152,26.17766 0.8798,-0.20047 28.9493,-23.40606 62.3766,-51.56798 z M 305.33333,288.12071 v -62.54596 l 6.68278,-13.34907 c 8.85212,-17.6824 15.87314,-23.56284 24.30541,-20.35691 1.95292,0.7425 4.62949,3.32578 5.94795,5.74062 2.2112,4.04993 2.42934,10.15837 2.81156,78.72394 l 0.41437,74.33334 H 362.74769 380 v -61.21519 -61.21517 l 4.63829,-10.83668 c 10.87192,-25.40063 22.76687,-33.22178 31.89218,-20.96971 2.75969,3.70529 2.80865,4.92205 3.17861,79 l 0.37575,75.23675 H 438.04241 456 l -0.0232,-74.33334 c -0.0253,-81.14534 -0.39761,-86.03133 -7.64192,-100.28168 -2.39615,-4.71349 -5.73321,-8.71066 -9.46169,-11.33333 -5.36286,-3.77229 -6.70564,-4.08265 -19.47503,-4.50132 -11.69017,-0.38329 -14.49248,-0.0531 -18.98091,2.23677 -6.15333,3.1392 -13.27897,10.65804 -18.42906,19.446 -2.18016,3.72016 -4.45363,6.07115 -5.64051,5.83282 -1.12149,-0.2252 -3.04277,-3.81214 -4.40721,-8.22806 C 367.43111,164.91001 359.88807,160 341.97661,160 c -16.39316,0 -22.98684,3.90339 -32.21488,19.07088 -6.84365,11.24845 -8.98678,10.17408 -9.4803,-4.75255 l -0.38526,-11.65166 h -14.61474 -14.61476 v 94 94 H 288 305.33333 Z m 605.33334,46.57357 v -15.9724 l -27,-0.36093 -27,-0.36095 -0.34416,-77 -0.34418,-77 h -49.32249 -49.32251 v 15.30572 15.30573 l 27,0.36094 27,0.36094 V 256.66667 318 l -30,0.66667 -30,0.66666 -0.37565,15.66667 -0.37564,15.66667 h 80.04231 80.04232 z m 114.66663,-44.43524 v -60.40763 l 3,-4.007 c 22.9594,-30.66597 44.3002,-39.74284 60.3365,-25.66281 8.4521,7.42108 8.6635,9.4722 8.6635,84.0604 v 66.42467 H 1118.6667 1140 l -0.046,-67 c -0.05,-72.7016 -0.673,-80.92819 -7.2037,-95.19303 -5.5585,-12.14129 -11.5395,-18.39647 -23.0114,-24.06621 -9.3653,-4.62854 -11.23,-5.06195 -23.7776,-5.52642 -22.0709,-0.81701 -37.9472,5.36484 -52.9664,20.62383 -4.5803,4.65336 -9.2942,8.46843 -10.4754,8.47791 -2.2641,0.0181 -3.8168,-7.92536 -3.8408,-19.64942 l -0.011,-5.66666 H 1001.3333 984 v 94 94 h 20.6667 20.6666 z M 846.41535,131.07719 c 8.03128,-4.97462 12.26144,-12.91905 12.22204,-22.95357 C 858.57031,91.043715 847.50697,80 830.46379,80 820.66953,80 812.68424,84.161787 807.84877,91.786521 804.56376,96.966453 804,99.20362 804,107.05954 c 0,5.79307 0.81572,10.92312 2.20109,13.84256 6.66079,14.03658 26.0569,18.94422 40.21426,10.17509 z"
       id="path1025"
       inkscape:connector-curvature="0" />
    <path
       style="fill:#d3d3d3;stroke-width:1.33333337"
       d="M 0,288 V 0 h 724 724 V 288 576 H 724 0 Z m 1064.9913,220.64473 c 8.4512,-2.50976 13.6754,-8.17677 13.6754,-14.83469 0,-10.0942 -5.1915,-13.45048 -22.7309,-14.69545 -14.1945,-1.00756 -18.2209,-3.14088 -16.7781,-8.88963 0.8726,-3.47665 1.1327,-3.55829 11.3372,-3.55829 8.6669,0 11.215,-0.51835 14.9746,-3.04618 5.4551,-3.66781 8.0197,-10.22781 6.9953,-17.89273 -0.6946,-5.19647 -0.4956,-5.66923 2.7263,-6.47787 2.5332,-0.6358 3.4756,-1.73692 3.4756,-4.0611 0,-3.09678 -0.3367,-3.19754 -11.6667,-3.49191 -24.1612,-0.62776 -30.9135,1.00481 -34.644,8.37611 -2.0866,4.12301 -2.1506,12.46218 -0.1383,18.02704 1.276,3.52868 1.1578,5.11813 -0.6666,8.96282 -2.7923,5.88416 -2.8018,9.53707 -0.037,14.21738 2.0702,3.50452 2.0381,3.83428 -0.6327,6.50513 -5.6165,5.61652 -5.371,14.52187 0.5066,18.373 7.112,4.65999 22.4599,5.7956 33.6033,2.48637 z m -22.0021,-6.02362 c -4.7747,-1.91862 -6.5121,-7.11572 -3.7753,-11.29267 2.9458,-4.49585 7.6423,-6.18209 14.543,-5.22153 11.8552,1.65021 16.0834,5.2964 12.9441,11.16226 -3.0921,5.77763 -15.6172,8.60464 -23.7118,5.35194 z m 0.9082,-45.18522 c -4.5366,-4.53658 -4.8979,-8.44538 -1.3227,-14.30865 7.289,-11.95397 24.447,-2.70551 19.2151,10.35728 -3.3533,8.37212 -11.6413,10.20245 -17.8924,3.95137 z m -287.86585,26.75162 c 4.8164,-3.56092 6.2243,-3.58236 7.3259,-0.11147 0.67912,2.13975 1.798,2.65267 5.08984,2.33333 L 772.66667,486 V 448 410 H 768 763.33333 l -0.66666,9.71768 c -0.78479,11.43949 -1.58671,12.23335 -12.38646,12.26191 -14.29653,0.0379 -22.50328,6.85801 -25.09004,20.85106 -2.62138,14.18036 1.67898,28.91162 9.62066,32.95639 5.92236,3.01632 16.00544,2.25629 21.22072,-1.59953 z m -15.89974,-8.98944 c -5.15709,-6.55618 -5.52862,-22.34422 -0.68036,-28.91112 5.5366,-7.49923 18.65188,-9.65559 21.89298,-3.59956 0.72722,1.35885 1.32224,7.38902 1.32224,13.4004 v 10.92976 l -5.82456,5.82456 c -7.05947,7.05946 -12.41643,7.81473 -16.7103,2.35596 z m 100.53486,11.7093 c 4.4755,-0.78792 5.39897,-1.50318 5.74144,-4.44694 l 0.4081,-3.508 -11.07477,0.59674 c -12.6788,0.68316 -16.04733,-0.52624 -20.70141,-7.43244 -3.42796,-5.08674 -3.48387,-5.34773 -1.73868,-8.11673 0.97966,-1.55439 5.2084,-2.14853 18.97958,-2.66667 L 850,460.66667 l -0.17603,-6.90059 c -0.37293,-14.61935 -7.95433,-22.18743 -22.35608,-22.31681 -15.30596,-0.13754 -24.234,8.74936 -25.74989,25.63122 -2.08909,23.26515 12.54859,34.47468 38.94867,29.82688 z M 815,453.78363 c -2.98707,-1.20531 -1.79673,-7.19203 2.23077,-11.21952 4.20296,-4.20296 9.47108,-5.03926 15.22614,-2.41708 5.4891,2.50101 8.35365,12.07832 4.1007,13.71032 -2.48928,0.95522 -19.1488,0.89825 -21.55761,-0.0737 z m 101.28577,30.63204 c 5.74156,-3.34467 8.31006,-10.58463 6.34459,-17.88386 -1.52876,-5.67736 -3.77881,-7.25914 -15.96369,-11.2225 -12.24199,-3.98195 -16.03487,-7.59478 -13.31287,-12.6809 1.34411,-2.51148 9.45577,-5.55658 12.41233,-4.65956 0.86196,0.26152 4.1172,0.8326 7.23387,1.26907 5.54461,0.77649 5.66667,0.71044 5.66667,-3.06684 0,-3.75284 -0.23306,-3.88537 -8.3633,-4.75605 -8.94157,-0.95756 -19.66336,0.77898 -24.57056,3.97957 -3.45581,2.25396 -5.91554,10.02507 -4.85368,15.3344 1.03118,5.15585 5.13499,8.51469 13.78754,11.28464 13.4234,4.29725 18.42405,8.25921 16.55898,13.11951 -1.48024,3.85744 -10.33078,6.21646 -18.12065,4.82989 -12.89485,-2.29525 -12.43833,-2.37001 -12.43833,2.03696 0,3.50953 0.57221,4.11137 4.66666,4.90829 8.66623,1.68674 26.20222,0.27455 30.95244,-2.49262 z m 85.04753,-0.91723 c 0,-2.87759 -0.6725,-3.224 -7.33175,-3.77624 -4.0325,-0.3344 -7.7825,-1.05712 -8.33334,-1.60603 -0.55085,-0.5489 -1.19132,-11.17085 -1.42326,-23.60432 l -0.42171,-22.60628 -12.91163,0.38055 C 958.1296,432.66285 958,432.70012 958,436 c 0,3.12272 0.48441,3.3586 7.66667,3.7332 l 7.66666,0.39988 v 19.11128 c 0,21.60289 0.50891,20.69832 -11.66666,20.73744 C 956.51596,479.9983 956,480.30351 956,483.33333 v 3.33334 h 22.66667 22.66663 z M 1116,471.29051 c 0,-17.37652 1.3733,-22.17656 7.921,-27.6861 4.7586,-4.0041 8.9247,-4.56141 12.8242,-1.71549 2.3193,1.69272 2.6574,4.08164 3.2548,23 l 0.6667,21.11108 5,0.41383 5,0.41381 v -22.54997 c 0,-21.18106 -0.1822,-22.81944 -3,-26.98886 -4.971,-7.35514 -14.6947,-8.21729 -25.3591,-2.24844 l -5.0257,2.81291 -2.103,-3.00251 c -1.312,-1.87318 -3.183,-2.84858 -4.9743,-2.5933 -2.8177,0.40156 -2.878,0.91332 -3.2322,27.4092 l -0.3609,27 h 4.6942 H 1116 Z M 981.9132,421.36633 c 2.78387,-1.05842 3.42013,-2.17996 3.42013,-6.02858 0,-3.71126 -0.69581,-5.04528 -3.23501,-6.20222 -4.34369,-1.97913 -9.60989,-0.48062 -10.51825,2.99298 -1.00636,3.8483 1.08026,8.84496 4.01088,9.60448 1.32498,0.34338 2.52,0.69394 2.65558,0.77901 0.1356,0.0851 1.7856,-0.43048 3.66667,-1.14567 z M 596.10695,352.07497 c 10.82104,-3.34349 22.7506,-10.46212 30.88472,-18.42957 4.50468,-4.41239 6.73685,-5.78355 7.75608,-4.76432 0.78709,0.78709 1.77745,6.01084 2.20078,11.60833 l 0.76971,10.17726 h 17.85988 17.85987 l -0.38566,-75 -0.38566,-75 -4.40735,-9.33334 C 658.62495,170.9308 643.03651,162.0742 610.66667,158.61196 589.53176,156.3514 560.58744,159.16988 538,165.68795 l -10.66667,3.07808 -0.37317,16.95032 c -0.20524,9.32268 0.0948,16.95001 0.66667,16.94965 0.57192,-3.7e-4 4.29072,-1.23625 8.264,-2.74641 26.00792,-9.885 59.67882,-12.93248 75.07696,-6.79506 9.15318,3.6483 16.09994,11.09702 18.2269,19.54392 1.66424,6.6093 1.93016,19.25054 0.45156,21.46592 -0.6129,0.91831 -9.71369,1.77964 -24.31292,2.30106 -25.92413,0.92589 -36.50277,2.30894 -49.33333,6.44984 -33.15237,10.69952 -48.80647,33.9364 -44.33397,65.80918 2.38646,17.00695 10.59442,30.8285 22.9001,38.56194 5.01968,3.15461 15.36674,6.85474 22.10054,7.90322 8.35664,1.30116 30.96977,-0.46742 39.44028,-3.08464 z m -15.44028,-30.31652 c -13.20943,-2.96658 -20.98348,-9.29648 -23.30562,-18.97622 -3.72905,-15.54444 6.18892,-29.282 24.58575,-34.05415 11.48452,-2.97911 46.76255,-2.94403 47.91055,0.0476 0.44513,1.15997 0.80932,7.28915 0.80932,13.62037 v 11.51132 l -8.33334,7.81511 c -17.08734,16.02473 -30.59833,22.52165 -41.66666,20.03593 z m -396.00031,19.57519 13.28299,-13.33301 -3.97468,-3.86808 c -2.18607,-2.12744 -22.57467,-19.26444 -45.308,-38.0822 -27.31273,-22.60843 -41.33334,-35.06064 -41.33334,-36.70967 0,-2.30183 9.71544,-10.60351 77.12528,-65.90229 7.0811,-5.80888 12.87472,-10.9196 12.87472,-11.35715 0,-0.43756 -6.20564,-6.98007 -13.7903,-14.53892 l -13.7903,-13.74337 -61.87136,52.08549 c -34.029241,28.64703 -62.058945,52.64828 -62.288226,53.33613 -0.229283,0.68784 6.968463,7.51728 15.994989,15.17654 64.793147,54.97873 107.161307,90.26956 108.372467,90.26956 0.78252,0 7.40011,-5.99986 14.70576,-13.33303 z m 1132.58234,-39.0656 c 33.7798,-28.45257 61.418,-52.20216 61.418,-52.77684 0,-0.57469 -2.55,-3.09276 -5.6667,-5.59569 -3.1167,-2.50295 -30.2843,-25.25336 -60.3726,-50.5565 -30.0882,-25.30312 -55.8272,-46.90298 -57.1977,-47.99969 -2.32,-1.85651 -3.3976,-1.03345 -15.6274,11.93564 -7.2246,7.66131 -13.1356,14.35169 -13.1356,14.86752 0,0.51583 20.4,17.87807 45.3333,38.58276 24.9333,20.70469 45.3333,38.36785 45.3333,39.25147 0,0.88362 -4.65,5.48414 -10.3333,10.22338 -16.7002,13.92603 -41.1328,34.02234 -61.3561,50.46658 -10.3714,8.43333 -18.8841,15.9226 -18.9171,16.64281 -0.094,2.05439 25.752,27.46179 27.5219,27.05455 0.8702,-0.20022 29.2202,-23.64342 63,-52.09599 z M 305.33333,289.83448 v -60.83219 l 4.86495,-10.83448 c 6.41205,-14.27997 11.71745,-21.85285 17.11177,-24.42524 6.59303,-3.14398 10.99832,-1.48437 14.08026,5.30448 2.41189,5.31291 2.55272,9.6038 2.58041,78.61962 l 0.0293,73 h 18.66667 18.66666 v -62.00511 -62.00509 l 5.937,-12.45312 c 3.26536,-6.84923 7.67399,-14.31256 9.79695,-16.5852 7.09033,-7.59023 15.30031,-7.04311 19.86859,1.32405 2.21133,4.05021 2.42822,10.11053 2.79374,78.0578 l 0.39627,73.66667 h 17.98668 17.98667 L 455.71628,271 c -0.38169,-79.40561 -0.39304,-79.6946 -3.462,-88.19261 -4.07035,-11.27083 -8.36111,-16.62434 -16.62461,-20.74222 -5.73315,-2.85694 -8.63732,-3.39384 -18.22479,-3.36922 -8.15989,0.0209 -12.92235,0.72242 -16.73821,2.4654 -6.08815,2.78089 -15.64622,12.60826 -18.90092,19.43346 -3.88435,8.14556 -6.66794,7.27346 -9.61066,-3.01104 -2.15846,-7.54356 -9.35816,-15.38984 -15.92774,-17.35813 -7.45151,-2.23252 -23.36091,-1.95608 -29.27018,0.5086 -6.53614,2.72615 -12.87049,8.98647 -17.8072,17.59909 -6.35186,11.08155 -9.09634,8.87756 -9.13177,-7.33333 L 300,162.66667 h -15.33333 -15.33334 v 94 94 h 18 18 z m 605.33334,44.83219 v -16 h -25.2381 c -21.16594,0 -25.57616,-0.33807 -27.33333,-2.09524 -1.85569,-1.8557 -2.09524,-10.77346 -2.09524,-78 v -75.90476 h -49.33333 -49.33334 v 16 16 h 25.2381 c 21.16594,0 25.57616,0.33806 27.33333,2.09524 1.84033,1.84032 2.09524,9.12842 2.09524,59.90476 0,50.77633 -0.25491,58.06444 -2.09524,59.90476 -1.77439,1.7744 -6.47041,2.09524 -30.66667,2.09524 h -28.57142 v 16 16 h 80 80 z m 114.66663,-43.10475 v -59.10473 l 4.1016,-6.19227 c 6.4388,-9.72073 21.5766,-24.20047 29.3502,-28.0742 15.1142,-7.53173 28.8133,-2.96563 35.4846,11.82748 2.1872,4.85007 2.4321,11.23589 2.798,72.9818 l 0.401,67.66667 H 1118.7344 1140 L 1139.9768,281 c -0.025,-74.85605 -0.3788,-79.6176 -7.0116,-94.33333 -7.0018,-15.53428 -20.8578,-25.51699 -39.0283,-28.11844 -23.8061,-3.4083 -44.7556,3.36862 -60.9594,19.71966 -4.571,4.61255 -8.9967,8.38923 -9.8349,8.39262 -2.1205,0.009 -3.1426,-3.22318 -3.1426,-9.93623 0,-3.14835 -0.375,-7.59928 -0.8333,-9.89095 l -0.8334,-4.16666 H 1000.5 982.66667 v 94 94 H 1004 1025.3333 Z M 845.26064,132.70351 c 7.88527,-3.99578 11.5626,-8.86043 13.48941,-17.84487 3.61064,-16.835831 -5.07352,-31.610197 -20.45452,-34.799288 -19.6011,-4.064085 -33.79264,5.850216 -35.30273,24.662718 -0.76549,9.53647 1.06451,16.22353 6.06663,22.1682 7.87069,9.3538 24.07822,11.95642 36.20121,5.81324 z"
       id="path1023"
       inkscape:connector-curvature="0" />
    <path
       style="fill:#adadad;stroke-width:1.33333337"
       d="M 0,288 V 0 h 724 724 V 288 576 H 724 0 Z m 1068.9239,220.02357 c 10.9446,-4.84133 14.3797,-16.5148 7.0242,-23.87032 -4.262,-4.26201 -6.5099,-4.87241 -22.5156,-6.11402 -11.1602,-0.86574 -13.7441,-2.29016 -13.1666,-7.25843 0.3924,-3.37541 0.586,-3.43783 9.2628,-2.98609 16.1094,0.83868 23.8046,-5.48912 23.8046,-19.57447 0,-7.31723 0.268,-8.07283 3,-8.46084 2.1073,-0.29928 3.1208,-1.46817 3.406,-3.92803 l 0.406,-3.50196 -17.9324,-0.96045 c -19.6861,-1.05439 -25.5009,0.27001 -29.7662,6.77955 -3.267,4.9862 -3.7822,13.2663 -1.1839,19.0283 2.2145,4.91104 2.198,5.26176 -0.485,10.26755 -3.3572,6.26381 -3.3942,7.17265 -0.5357,13.16681 2.1574,4.5243 2.1381,4.81519 -0.5135,7.71191 -8.2532,9.01641 -3.2871,19.40709 10.6848,22.3556 7.7681,1.63932 21.7447,0.33772 28.5105,-2.65511 z m -22.6758,-5.33738 c -8.1293,-2.53035 -9.9894,-7.95918 -4.4955,-13.12044 3.7264,-3.50078 13.1937,-3.93226 20.3817,-0.92891 3.9531,1.65173 4.6466,2.54631 4.2905,5.5348 -0.7842,6.58051 -11.6537,11.16744 -20.1767,8.51455 z m -2.0157,-45.77212 c -6.2199,-6.6208 -1.5952,-18.2474 7.2583,-18.2474 5.3374,0 11.176,4.87882 11.176,9.33894 0,3.8278 -3.4361,10.15935 -6.0598,11.16615 -4.4293,1.69969 -9.5312,0.76888 -12.3745,-2.25769 z m -288.80325,28.36005 c 5.31997,-3.28793 6.75146,-3.27681 7.62385,0.0592 0.53415,2.0426 1.81868,2.66667 5.48884,2.66667 h 4.79149 v -39.41 -39.41 l -5.66666,0.41 -5.66667,0.41 -0.66667,10 -0.66666,10 -10.36194,0.84174 C 731.62901,432.35885 724,440.94996 724,460.46379 c 0,14.69493 3.91733,23.06402 12.66667,27.06138 4.94833,2.26078 13.03129,1.29102 18.76248,-2.25105 z m -13.97662,-9.81391 c -8.08181,-8.60269 -5.804,-28.45201 3.83716,-33.43764 4.68543,-2.42293 12.22276,-2.64345 14.44364,-0.42257 1.01187,1.01187 1.6,6.0956 1.6,13.83019 v 12.23018 l -5.97021,5.50315 c -6.86092,6.32419 -9.6884,6.79101 -13.91059,2.29669 z m 104.21414,11.00716 c 2.30962,-1.21538 3.26213,-7.09636 1.33333,-8.23222 -0.55,-0.3239 -4.6,-0.0839 -9,0.5335 -4.82772,0.67732 -9.94408,0.6053 -12.90267,-0.18164 -5.74317,-1.52761 -12.0785,-8.37984 -11.4993,-12.43756 0.38088,-2.66836 1.34644,-2.8511 18.40197,-3.48278 L 850,462 l 0.40081,-7.69839 c 0.77908,-14.9635 -8.04426,-23.63494 -24.04897,-23.63494 -7.40091,0 -9.37509,0.54814 -13.97484,3.88018 -13.86428,10.04323 -16.18456,34.97892 -4.35551,46.80798 3.33932,3.33932 7.11827,5.58136 10.8807,6.45549 6.28846,1.461 23.03264,0.62084 26.76448,-1.34295 z m -31.59752,-34.35548 c -2.23214,-3.61168 6.18617,-13.44522 11.51021,-13.44522 6.60475,0 15.08871,9.0163 12.47037,13.25285 -1.07521,1.73975 -22.91597,1.91495 -23.98058,0.19237 z m 102.04381,33.16382 C 922.48185,482.02655 924,479.27976 924,471.00573 c 0,-8.1849 -2.59557,-11.16641 -12.94272,-14.8671 -12.34901,-4.41667 -17.01745,-7.19216 -17.47231,-10.3877 -0.6847,-4.81037 5.07574,-7.62097 13.45415,-6.56445 3.82848,0.48277 8.16059,1.01331 9.62691,1.17897 1.88248,0.2127 2.79425,-0.60205 3.10234,-2.77217 0.79922,-5.62944 -1.81784,-6.92661 -13.97445,-6.92661 -18.10673,0 -25.79392,4.81273 -25.79392,16.14885 0,8.33776 4.5686,13.05667 15.98831,16.51428 14.80208,4.48171 18.93748,10.68231 9.97486,14.95628 -4.51945,2.15517 -10.80664,1.84727 -23.2965,-1.14092 -1.5242,-0.36465 -2,0.79032 -2,4.85484 v 5.33333 l 6.66666,0.86423 c 10.13943,1.31443 23.0439,0.004 28.77963,-2.92185 z m 85.22034,-1.87584 v -4.60012 L 993.66667,478.39987 986,478 985.63519,455 985.27036,432 H 970.63519 956 v 4 c 0,3.94856 0.0923,4 7.17008,4 4.49327,0 7.74408,0.69164 8.7076,1.85261 1.0316,1.243 1.41437,7.49504 1.16325,19 L 972.66667,478 964.33333,478.39696 956,478.79391 V 483.39696 488 h 22.66667 22.66663 z m 116,-14.383 0.6667,-18.31647 4.6667,-4.54945 c 6.1314,-5.9774 9.4719,-6.87838 13.4808,-3.63591 3.0847,2.49499 3.1994,3.25999 3.6119,24.103 l 0.4261,21.52623 5.5739,-0.40547 5.5739,-0.40547 0.3946,-20 c 0.4785,-24.24742 -0.031,-27.43078 -5.2145,-32.61478 -3.4677,-3.46775 -5.0462,-4.05242 -10.9493,-4.05559 -4.5736,-0.003 -8.8315,1.00829 -12.6379,3 -5.382,2.8162 -5.8231,2.85804 -7.0662,0.67037 C 1115.0671,432.93795 1112.9529,432 1110.6004,432 h -3.9337 v 28.08049 28.08048 l 5,-0.41381 5,-0.41383 z M 984.56716,420.10996 c 3.12616,-3.45437 2.21655,-7.92609 -2.29493,-11.28215 -3.43875,-2.55805 -4.00732,-2.61689 -7.33334,-0.75884 -4.36412,2.43799 -5.57098,9.10846 -2.24898,12.43046 2.93557,2.93557 9.04956,2.73509 11.87725,-0.38947 z m -797.93359,-79.45463 12.63358,-12.90844 -5.34455,-4.87345 c -2.93949,-2.68039 -23.7746,-20.12635 -46.30024,-38.76879 -22.52563,-18.64242 -40.95569,-34.2985 -40.95569,-34.79128 0,-0.92349 5.36036,-5.56268 22.66666,-19.61717 5.5,-4.46656 19.6,-16.00592 31.33334,-25.64303 11.73333,-9.63712 24.77904,-20.34153 28.99044,-23.7876 4.21141,-3.44606 7.66141,-7.15484 7.66666,-8.24172 0.0107,-2.19976 -25.15432,-28.02742 -27.29876,-28.01766 -1.34252,0.007 -9.53397,6.55388 -34.18708,27.32714 -19.78894,16.67463 -67.02425,56.38052 -78.978213,66.38892 -5.948762,4.98058 -11.272652,9.87171 -11.830865,10.86918 -1.066691,1.90608 5.186667,7.48374 61.637818,54.9777 15.76666,13.26494 34.96666,29.45558 42.66666,35.97919 18.24675,15.45905 19.92563,16.58903 22.53948,15.17016 1.16995,-0.63509 7.8123,-6.96351 14.76076,-14.06315 z m 406.83394,12.92027 c 11.023,-3.05659 24.13465,-10.34571 33.08502,-18.39287 4.07687,-3.66545 7.42278,-5.74076 8.12439,-5.03914 0.65607,0.65606 1.37216,5.69216 1.59131,11.1913 l 0.39844,9.99844 H 655.33333 674 l 0.36863,-70 c 0.42048,-79.84425 0.1276,-82.99485 -9.03332,-97.16854 -12.25516,-18.96112 -32.89626,-26.68967 -71.53615,-26.78494 -20.81327,-0.0513 -42.46147,2.99723 -58.46583,8.23328 L 526,168.66667 525.62796,186.33333 C 525.42335,196.05 525.52356,204 525.85071,204 c 0.32712,0 6.79453,-2.07436 14.37202,-4.60968 19.39282,-6.48857 36.10788,-9.15683 52.44394,-8.37172 26.12193,1.25541 36.66666,10.91243 36.66666,33.57984 0,9.31175 -0.21133,10.06207 -3,10.65123 -1.65,0.3486 -14.1,0.88798 -27.66666,1.19865 -19.55504,0.44779 -26.8771,1.15041 -35.33334,3.3906 -23.60453,6.25317 -40.18413,18.03643 -48.06628,34.16108 -3.42782,7.01239 -3.97116,9.76303 -4.4012,22.28117 -0.4032,11.73652 0.0107,15.8941 2.31995,23.33334 5.0404,16.2339 17.02237,28.51761 32.8142,33.6405 10.98771,3.56443 35.17999,3.72782 47.46751,0.32059 z m -19.2845,-34.19535 c -10.04497,-3.58093 -16.8789,-12.92724 -16.8204,-23.00409 0.0352,-6.07161 3.77127,-14.6238 8.14478,-18.64436 8.31029,-7.63968 26.18338,-11.51401 49.82594,-10.80072 l 13.33334,0.40225 0.3782,13.50542 0.3782,13.50542 -10.94808,9.66307 c -17.73618,15.65443 -30.79162,20.18575 -44.29198,15.37301 z m 706.41679,14.69215 c 13.1632,-11.03983 34.1632,-28.69663 46.6667,-39.23733 12.5034,-10.54072 29.214,-24.576 37.1347,-31.18954 9.6029,-8.01812 14.2676,-12.7865 14,-14.31133 -0.3408,-1.94267 -25.2291,-23.32341 -97.6503,-83.88848 -7.3797,-6.17152 -16.052,-13.52152 -19.272,-16.33333 C 1258.259,146.30057 1254.5578,144 1253.254,144 c -2.7951,0 -26.5889,25.04948 -26.5838,27.98671 0,2.19545 3.9873,5.65676 54.9965,47.78794 18.8833,15.59674 34.3333,29.19246 34.3333,30.2127 0,1.02024 -15.45,14.54634 -34.3333,30.05802 -55.6654,45.72618 -56.5075,46.47544 -55.1176,49.03795 0.6713,1.23751 6.9449,7.85237 13.9414,14.69971 8.5577,8.3752 13.2863,12.10802 14.4486,11.40573 0.9501,-0.57419 12.4975,-10.07655 25.6607,-21.11636 z M 306.66667,288 l 0.66666,-63.33333 5.14544,-10 c 6.49995,-12.63246 10.63535,-18.14008 15.51522,-20.66356 5.09528,-2.63487 9.7836,-0.84548 12.94214,4.93961 2.2112,4.04993 2.42935,10.15837 2.81156,78.72395 L 344.16207,352 h 18.58562 18.58564 v -61.26664 -61.26665 l 5.24852,-12.10106 c 10.48955,-24.18488 21.1428,-31.161 29.08482,-19.04574 2.13085,3.25053 2.39118,10.0439 3,78.28641 l 0.66666,74.72701 H 438 456.66667 l 0.34445,-75.032 c 0.36907,-80.3964 -0.0308,-86.59233 -6.44275,-99.83772 -6.5605,-13.55217 -15.16714,-18.28025 -33.32953,-18.30964 -11.45573,-0.0185 -13.38499,0.34495 -18.85947,3.55322 -6.34465,3.71821 -9.41132,6.92216 -16.7322,17.48124 -2.39405,3.453 -4.86176,5.96365 -5.48377,5.57922 -0.62201,-0.38442 -1.92768,-3.54464 -2.90148,-7.02269 -2.53225,-9.04436 -10.83543,-17.04653 -19.40993,-18.70635 -9.97447,-1.93081 -23.48064,-0.95569 -29.53354,2.13226 -5.89364,3.00672 -11.70494,9.15644 -15.62165,16.53136 -1.45011,2.73044 -3.10011,4.96444 -3.66667,4.96444 -0.56657,0 -1.48013,0.008 -2.03013,0.0167 -0.55,0.009 -1.3,-4.64086 -1.66667,-10.33333 L 300.66667,162 285,161.62435 269.33333,161.24871 v 95.41326 95.41328 L 287.66667,351.70429 306,351.33333 Z m 604.66666,46.66667 V 318 L 884.66667,317.33333 858,316.66667 l -0.34416,-77 -0.34417,-77 H 806.6148 755.91792 L 756.29229,179 756.66667,195.33333 783.33333,196 810,196.66667 v 60 60 l -30,0.66666 -30,0.66667 -0.37936,15.25181 c -0.20864,8.3885 -0.0757,16.04319 0.29549,17.01042 0.5504,1.43432 15.49588,1.69522 81.04603,1.41486 l 80.37117,-0.34376 z m 115.33337,-44.1297 c 0.5622,-51.268 0.9796,-61.19397 2.6634,-63.33333 23.9581,-30.43903 42.4327,-38.87316 57.4572,-26.23083 8.6177,7.25132 8.4779,6.01139 9.2127,81.69386 l 0.6667,68.66666 h 22 22 L 1141.013,284 c 0.3874,-75.33341 -0.222,-83.05339 -7.7657,-98.37683 -5.4386,-11.04733 -11.9676,-17.50301 -23.388,-23.12528 -8.4346,-4.15237 -10.2877,-4.53445 -24.1227,-4.9738 -12.3015,-0.39065 -16.616,0.0191 -24.0835,2.28728 -10.6682,3.24038 -22.5894,10.69987 -30.9307,19.35446 -3.2694,3.39213 -6.6716,6.1675 -7.5605,6.1675 -1.0232,0 -1.9261,-3.30281 -2.4604,-9 -0.4643,-4.95 -0.962,-10.2 -1.1062,-11.66666 -0.246,-2.5046 -1.3762,-2.68922 -18.5953,-3.03763 l -18.33333,-0.37096 v 95.40399 95.40398 L 1004.3333,351.69969 1026,351.33333 Z M 847.39596,132.493 c 9.41639,-5.79698 12.86657,-13.08012 12.34139,-26.05191 -0.35792,-8.840326 -0.9552,-10.993978 -4.409,-15.897641 -5.68806,-8.075809 -13.54767,-11.876782 -24.55868,-11.876782 -11.67711,0 -19.25203,3.923353 -24.71791,12.802394 -3.38381,5.496844 -3.95563,7.770974 -4,15.908189 -0.0693,12.72777 4.5558,20.69504 15.30216,26.35923 6.40204,3.37439 8.34104,3.77521 15.56972,3.21863 5.98189,-0.4606 9.96952,-1.69007 14.47232,-4.46211 z"
       id="path1021"
       inkscape:connector-curvature="0" />
    <path
       style="fill:#959595;stroke-width:1.33333337"
       d="M 0,288 V 0 h 724 724 V 288 576 H 724 0 Z m 1062.9344,222.48659 c 10.1678,-2.1779 17.0656,-9.21636 17.0656,-17.4136 0,-4.78724 -0.7382,-6.61467 -3.8931,-9.63722 -3.2892,-3.15128 -5.6158,-3.9291 -15,-5.01481 -18.924,-2.18941 -19.5719,-2.35169 -20.4512,-5.12201 -1.3831,-4.35798 0.432,-5.29895 10.2215,-5.29895 16.4871,0 22.7228,-5.16776 22.7228,-18.83131 0,-7.2239 0.2616,-7.91713 3.2723,-8.67278 2.7282,-0.68472 3.2049,-1.51491 2.8667,-4.99195 l -0.4057,-4.17063 -14,-0.8919 c -17.734,-1.12978 -26.3853,0.39397 -31.2873,5.51058 -4.4607,4.65599 -5.896,13.7556 -3.3747,21.39526 1.4621,4.43032 1.3933,5.82364 -0.4831,9.77781 -2.6439,5.57156 -2.714,9.76071 -0.2379,14.20825 1.6614,2.9841 1.5751,3.63392 -0.8232,6.20228 -1.4735,1.57792 -2.9927,5.20723 -3.376,8.06514 -1.712,12.76376 15.2981,19.57352 37.1833,14.88584 z m -19.8187,-9.3956 c -5.6162,-2.71675 -4.5218,-10.78214 1.7887,-13.18138 3.2763,-1.24565 10.4389,-0.842 16.7637,0.94475 2.9967,0.84659 5.2259,5.00191 4.1655,7.76503 -1.9828,5.1672 -15.6988,7.86693 -22.7179,4.4716 z m 3.5731,-42.80566 c -4.8631,-2.46053 -6.3602,-7.88072 -3.7112,-13.43572 5.6809,-11.91293 22.7628,-4.03354 17.6446,8.13896 -2.7415,6.52028 -7.7513,8.42471 -13.9334,5.29676 z m -292.24793,28.16792 c 5.5901,-2.70613 6.05109,-2.74109 7.63213,-0.5789 1.20399,1.64656 3.1398,2.1814 6.80484,1.88009 L 774,487.33333 l 0.35439,-37.83801 c 0.25826,-27.57531 -0.0724,-38.35228 -1.21922,-39.73408 -0.96564,-1.16355 -3.42062,-1.74125 -6.35438,-1.49532 L 762,408.66667 l -0.40059,9.27774 c -0.22032,5.10276 -1.04378,10.05276 -1.82992,11 -0.86808,1.04598 -4.47253,1.72226 -9.17929,1.72226 -9.50691,0 -13.97748,1.5962 -19.56508,6.98565 -5.66724,5.46625 -7.57348,11.49252 -7.53324,23.81504 0.0739,22.6086 13.48832,33.43845 30.94899,24.98589 z m -14.0035,-12.61608 c -3.19625,-4.87809 -3.89842,-17.35493 -1.32352,-23.51753 2.69691,-6.45461 9.37147,-10.67413 15.44492,-9.76396 2.50734,0.37573 5.04815,1.45443 5.64626,2.39708 0.5981,0.94265 1.09666,6.73449 1.10789,12.87077 l 0.0204,11.15686 -5.17647,5.17648 c -6.43917,6.43916 -12.19802,7.05474 -15.71949,1.6803 z m 106.34656,13.42368 C 847.45277,486.84749 848,484.46348 848,481.96304 v -4.54624 l -10.33333,0.79005 c -12.68314,0.9697 -19.06247,-1.21504 -22.40142,-7.67184 -3.50165,-6.77144 -0.87425,-7.86834 18.84694,-7.86834 18.68688,0 18.58788,0.0673 17.12489,-11.64202 -1.75317,-14.03193 -9.73967,-20.75014 -24.66744,-20.75014 -7.63595,0 -10.05351,0.5786 -14.37956,3.44144 -13.55992,8.97353 -16.32753,36.72437 -4.81108,48.24082 2.41476,2.41476 6.69233,5.04075 9.50573,5.83552 4.94779,1.39775 27.42412,0.99826 29.8992,-0.53144 z m -30.7356,-35.20276 c -3.12764,-1.97821 -0.14621,-8.32754 5.15758,-10.98373 3.83548,-1.92084 5.13061,-2.00621 8.65237,-0.57041 4.71799,1.92349 8.32951,7.3462 7.07312,10.62029 -0.67503,1.75909 -2.68955,2.20493 -9.88956,2.18868 -4.97301,-0.0107 -9.92009,-0.57591 -10.99351,-1.25483 z m 99.37231,34.24151 c 6.99741,-3.61851 8.96031,-6.89711 8.96031,-14.96627 0,-9.08038 -2.02716,-11.62233 -12.22898,-15.33444 -12.42056,-4.51942 -17.29217,-6.90576 -18.03158,-8.83264 -2.22151,-5.78913 5.66525,-9.2298 16.46288,-7.18206 9.81741,1.86182 9.6265,1.93769 9.16389,-3.64143 -0.4052,-4.88656 -0.55277,-5.01179 -7.08049,-6.00827 -7.60134,-1.16037 -18.12591,-0.15348 -24,2.29608 -6.63098,2.7652 -8.97436,6.44112 -8.97436,14.07754 0,9.11301 3.79648,13.07682 16.41824,17.14194 11.12097,3.58175 15.28862,6.95658 13.26358,10.74039 -2.2036,4.11745 -9.06724,5.66972 -17.44208,3.94465 -10.81266,-2.22721 -12.45754,-2.15509 -13.00852,0.57036 -1.13232,5.60119 0.89238,8.71059 6.08175,9.34003 9.3356,1.13235 26.40479,-0.0719 30.41536,-2.14588 z M 1002,483.33333 c 0,-3.84108 -0.2749,-4.02765 -6.91819,-4.69597 -3.80501,-0.38277 -7.40501,-1.18076 -8,-1.77329 -0.595,-0.59252 -1.38181,-11.07934 -1.74848,-23.30403 l -0.66666,-22.22671 h -14 -14 V 436 v 4.66667 l 7.66666,0.39986 7.66667,0.39988 v 17.90806 c 0,20.14196 0.77789,18.79644 -11.33333,19.60348 -4.9643,0.3308 -5.3624,0.65738 -5.75347,4.71984 l -0.42013,4.36445 23.75346,-0.36445 L 1002,487.33333 Z m 115.3333,-11.37616 c 0,-10.61734 0.6218,-17.53084 1.8385,-20.4428 2.1795,-5.21648 8.0565,-10.18922 12.008,-10.16062 6.4136,0.0464 6.78,1.23394 7.4869,24.26113 l 0.6666,21.71845 6.4166,0.40979 6.4166,0.40979 -0.4166,-24.72075 -0.4166,-24.72076 -4.2082,-4.20496 c -3.6569,-3.65401 -5.1664,-4.21881 -11.5212,-4.31068 -4.8361,-0.0699 -8.9201,0.75981 -12.0582,2.44979 -4.474,2.4094 -4.8885,2.42588 -7.2505,0.2883 -2.9242,-2.64644 -7.086,-2.94302 -9.3619,-0.66718 -1.1393,1.13936 -1.6,9.39258 -1.6,28.66666 V 488 h 6 6 z M 985,420.97749 c 2.38275,-1.86428 2.05813,-9.00162 -0.53999,-11.8725 -2.64309,-2.92059 -10.13348,-3.24163 -12.3833,-0.53075 -1.81134,2.18253 -2.29003,8.92323 -0.80439,11.32705 2.27311,3.67795 9.66203,4.25722 13.72768,1.0762 z M 596.40695,353.31564 c 10.08933,-3.11744 22.42936,-10.35948 29.64352,-17.397 2.96109,-2.88859 6.03609,-5.25197 6.83333,-5.25197 1.79895,0 3.1162,6.27021 3.1162,14.83333 v 6.5 h 19.38525 19.38527 l -0.38527,-75.66667 c -0.38508,-75.63197 -0.38666,-75.67017 -3.47938,-83.32888 -3.56476,-8.82766 -14.01796,-20.94636 -22.08335,-25.60186 -22.44928,-12.95818 -69.63077,-14.37576 -110.10903,-3.30826 -5.47425,1.49676 -10.72425,3.36131 -11.66666,4.14346 -1.24075,1.02972 -1.7135,6.3825 -1.7135,19.40145 0,16.60761 0.17803,17.90464 2.33334,16.99956 27.62421,-11.60021 58.92617,-16.55899 76.33333,-12.09253 16.32036,4.1876 23.59656,12.21578 24.98897,27.57158 1.33604,14.73411 2.51359,13.99735 -23.96142,14.99192 -33.6541,1.26426 -48.12794,4.19922 -65.40256,13.26212 -10.41983,5.46662 -22.48955,18.52466 -26.37875,28.53874 -4.15547,10.69965 -4.21983,33.36353 -0.1272,44.78553 6.74269,18.81795 21.53996,30.85751 42.21429,34.34697 9.79708,1.65358 31.5751,0.2074 41.07362,-2.72749 z m -21.72828,-34.526 c -8.57955,-3.04381 -13.95026,-8.46623 -16.02799,-16.18232 -1.78048,-6.61224 -0.80823,-12.05235 3.49021,-19.52879 2.51956,-4.38234 5.14602,-6.54009 12.17226,-10 8.86208,-4.3639 9.19712,-4.41701 30.8243,-4.88569 17.3416,-0.37581 22.10174,-0.1 23.00995,1.33333 0.6298,0.99394 1.15429,6.72371 1.16552,12.73282 0.0177,9.47102 -0.379,11.36914 -2.97959,14.2568 -5.94,6.5957 -17.81521,15.78982 -25.3505,19.62705 -10.2386,5.21385 -17.1174,5.90601 -26.30416,2.6468 z m -389.65484,23.52093 c 7.50356,-7.5292 13.61937,-14.2792 13.59068,-15 -0.0287,-0.72081 -20.41427,-18.11057 -45.30128,-38.6439 -29.21588,-24.10491 -45.14238,-38.10002 -44.94785,-39.49707 0.16571,-1.19004 20.58284,-18.79537 45.37141,-39.12295 24.78857,-20.32758 44.88857,-37.45522 44.66666,-38.06144 -0.22189,-0.6062 -6.59778,-7.45889 -14.16862,-15.22818 -8.44767,-8.6691 -14.37096,-13.75936 -15.33334,-13.17692 C 162.80379,147.27045 43.969608,248.76649 44.277301,250.02137 44.769965,252.03063 168.09164,356 169.98221,356 c 0.76932,0 7.53804,-6.16024 15.04162,-13.68943 z M 1317.3333,303.58841 c 34.1,-28.78178 62,-53.0646 62,-53.96181 0,-1.58136 -124.3174,-106.95993 -126.183,-106.95993 -1.2485,0 -27.817,28.26781 -27.817,29.59622 0,0.57551 19.65,17.32712 43.6667,37.22582 52.0761,43.14696 47.5636,39.08048 46.145,41.58362 -0.6297,1.11124 -20.945,18.32486 -45.145,38.25248 -24.2,19.92763 -44.2224,36.84888 -44.4942,37.6028 -0.5679,1.57542 26.4176,29.09318 28.4704,29.03184 0.7464,-0.0223 29.2571,-23.58926 63.3571,-52.37104 z M 306.66667,290.04675 v -61.95326 l 7.66666,-15.04674 c 6.28564,-12.33632 8.52171,-15.50455 12.41332,-17.58822 3.02911,-1.62184 5.96176,-2.23649 8.10475,-1.69862 7.04996,1.76942 7.09511,2.24828 7.81527,82.90676 l 0.66666,74.66666 H 362.66667 382 L 382.66667,288 l 0.66666,-63.33333 5.55326,-11.3496 c 8.33962,-17.04428 14.72741,-22.41016 22.47552,-18.8799 6.83697,3.11514 7.30456,8.6505 7.30456,86.4715 V 352 h 19.39129 19.39128 l -0.42487,-81 -0.42486,-81 -3.18362,-8.61403 c -3.88156,-10.50246 -12.73209,-19.9961 -20.90392,-22.42288 -8.42757,-2.5027 -25.497,-2.03593 -31.8453,0.87084 -5.6534,2.58859 -15.75978,12.60259 -20.02856,19.84551 -1.40882,2.39036 -3.13926,4.15351 -3.84543,3.91812 -0.70617,-0.23539 -2.22341,-3.21635 -3.37164,-6.62435 -2.59572,-7.70416 -10.64356,-16.11844 -17.33359,-18.12281 -7.93618,-2.37775 -23.87549,-1.85984 -30.08745,0.97761 -5.79548,2.64722 -15.16407,12.06538 -18.58781,18.68618 -3.96375,7.66504 -6.07886,4.65034 -6.07886,-8.66428 v -8.59866 L 285,161.62563 268.66667,162 l -0.3451,93.33333 c -0.1898,51.33334 -0.0587,94.08334 0.29148,95 0.46747,1.22391 5.6067,1.66667 19.34511,1.66667 h 18.70851 z M 912,334.66667 v -17.33334 h -25.73333 c -18.23704,0 -26.19943,-0.46609 -27.33334,-1.6 -1.20722,-1.20722 -1.6,-20.35912 -1.6,-78.01604 V 161.30127 L 807,161.65063 756.66667,162 l -0.37318,17 -0.37316,17 h 25.77316 c 18.26803,0 26.2391,0.46592 27.37318,1.6 2.30126,2.30127 2.30126,115.83207 0,118.13333 -1.14659,1.14659 -9.83704,1.6 -30.66667,1.6 H 749.33333 V 334.66667 352 H 830.66667 912 Z m 114.6667,-42.43808 v -59.7714 l 3.9056,-5.89527 c 6.2439,-9.42485 20.7971,-23.34249 28.3377,-27.10012 13.7652,-6.85951 26.8822,-3.21067 33.09,9.20487 l 3.3333,6.66666 0.3901,68.33334 0.3901,68.33333 h 22.6099 22.6099 l -0.011,-69 c -0.01,-40.49053 -0.5721,-72.46335 -1.3704,-77.38215 -3.8754,-23.88138 -16.3052,-39.71861 -36.4796,-46.47981 -4.8931,-1.63988 -10.9297,-2.25028 -21.4733,-2.17129 -22.058,0.16525 -34.0587,5.0591 -49.8578,20.3318 -9.0693,8.76717 -10.7476,8.85338 -10.7885,0.55421 -0.011,-2.28097 -0.4041,-6.94695 -0.8731,-10.3688 l -0.8528,-6.22157 -18.8139,0.3688 L 982,162 l -0.34509,93.33333 c -0.1898,51.33334 -0.0587,94.08334 0.29148,95 0.4738,1.24046 6.27336,1.66667 22.67841,1.66667 h 22.0419 z M 844.91399,134.54695 c 12.37029,-5.98836 18.14118,-19.13024 15.02397,-34.21362 -1.30267,-6.303199 -2.68293,-8.765158 -7.7612,-13.843421 C 844.50688,78.820029 835.08996,76.226 823.58611,78.614192 796.75717,84.183857 792.88089,123.17575 818,134.80552 c 7.42177,3.43616 19.5218,3.31992 26.91399,-0.25857 z"
       id="path1019"
       inkscape:connector-curvature="0" />
    <path
       style="fill:#6b6b6b;stroke-width:1.33333337"
       d="M 0,288 V 0 h 724 724 V 288 576 H 724 0 Z m 1061.6153,223.49948 c 9.2059,-2.16652 13.6648,-4.92156 17.11,-10.57192 3.3843,-5.55043 3.2981,-10.88015 -0.2568,-15.87259 -3.6512,-5.12758 -9.8419,-7.70118 -18.759,-7.79848 -3.8736,-0.0423 -9.4428,-0.50244 -12.3762,-1.02261 -4.5363,-0.80445 -5.3333,-1.44052 -5.3333,-4.25649 0,-3.19192 0.2733,-3.29446 7.6165,-2.85744 9.8723,0.58752 15.946,-1.51036 20.9835,-7.24775 3.5497,-4.04291 4.0667,-5.63088 4.0667,-12.49253 0,-7.13688 0.2763,-7.90011 3,-8.28694 2.4585,-0.34916 3,-1.26836 3,-5.09273 v -4.66667 l -18.2288,-1.15976 c -16.536,-1.05205 -18.6948,-0.92824 -23.2473,1.33334 -9.6911,4.81436 -13.7029,15.79261 -9.3328,25.53914 2.1196,4.72731 2.0974,5.19559 -0.485,10.23587 -3.256,6.35523 -3.318,7.66735 -0.6092,12.90553 1.9122,3.69775 1.9086,4.2631 -0.04,6.41672 -5.8097,6.41964 -4.6455,17.43102 2.3258,21.99879 6.6875,4.38187 19.2119,5.56869 30.5663,2.89652 z m -16.282,-10.53179 c -5.4537,-1.91001 -6.8523,-6.41257 -3.2338,-10.41098 2.7463,-3.03458 13.9108,-3.52043 19.2338,-0.83702 10.9514,5.52076 -3.4484,15.6438 -16,11.248 z m -0.46,-44.73934 c -2.7782,-3.06986 -2.8407,-9.39647 -0.131,-13.265 4.227,-6.035 16.591,-2.21626 16.591,5.1243 0,3.13694 -2.356,8.10502 -4.5329,9.5586 -2.7797,1.85602 -9.7098,1.03214 -11.9271,-1.4179 z m -289.03731,30.31609 4.50265,-2.65431 1.95737,2.79454 c 1.49702,2.13729 3.10352,2.69898 6.83068,2.38826 L 774,488.66667 v -40 -40 h -6.66667 -6.66666 l -0.66667,10 -0.66667,10 -9.42916,0.84294 c -19.39834,1.73416 -27.2504,10.80422 -27.22448,31.44756 0.0179,14.2727 4.11858,23.3294 12.28103,27.1239 6.68664,3.10842 13.89579,2.57777 20.87527,-1.53663 z m -13.74963,-11.78235 c -3.09583,-3.42085 -5.03389,-12.52628 -3.95024,-18.55901 1.88059,-10.4692 7.62549,-15.5012 16.70577,-14.63268 l 4.49144,0.4296 0.37924,12.80337 0.37926,12.80338 -5.3831,4.86329 c -6.05545,5.47075 -9.22485,6.04627 -12.62237,2.29205 z m 104.24697,13.10636 c 2.16111,-0.81818 3,-2.21788 3,-5.00552 0,-5.70174 -2.13408,-6.7243 -11.33333,-5.43042 -9.94277,1.39846 -16.92,-0.30556 -20.64589,-5.04227 -5.38728,-6.84883 -3.85126,-7.65459 15.99454,-8.39024 l 17.98468,-0.66667 0.34167,-8.66666 c 0.63845,-16.19472 -8.35139,-25.2694 -25.07477,-25.3114 -14.69364,-0.0369 -22.96324,7.43321 -26.61142,24.03869 -3.61949,16.47491 4.05378,31.49945 18.06366,35.36931 6.7859,1.87442 22.25949,1.38484 28.28086,-0.89482 z M 815.70057,451.25613 C 813.08096,448.63652 820.56173,440 825.45041,440 c 6.08038,0 13.42642,7.09056 11.15451,10.76659 -0.80952,1.30981 -19.64303,1.75086 -20.90435,0.48954 z m 100.36886,35.37511 c 7.108,-3.62623 9.2639,-7.26951 9.2639,-15.65519 0,-8.56536 -2.79558,-11.99866 -12.72353,-15.62598 -14.93992,-5.45852 -17.94313,-7.1273 -17.94313,-9.97035 0,-4.50292 5.4009,-6.10283 15.06412,-4.46244 9.47252,1.60801 11.60254,0.68392 11.60254,-5.03363 0,-5.26966 -3.18612,-6.55032 -16.29649,-6.55032 -18.20404,0 -26.30636,5.63071 -26.35052,18.3123 -0.0284,8.17852 4.65724,12.72788 17.85804,17.33834 12.34512,4.31163 15.04147,7.21504 10.30793,11.09956 -3.73717,3.06687 -8.99118,3.26102 -18.874,0.69744 -3.99824,-1.03712 -7.729,-1.60172 -8.29057,-1.25464 -1.68324,1.04031 -1.15188,10.70524 0.67177,12.21874 4.33314,3.59617 27.91963,2.86049 35.70994,-1.11383 z M 1002,483.33333 V 478 l -7.33333,-0.66667 -7.33334,-0.66666 L 986.66667,454 986,431.33333 H 970.66667 955.33333 V 436 v 4.66667 l 8,0.66666 8,0.66667 v 17.33333 17.33334 l -8,0.66666 c -7.60841,0.63404 -8.02118,0.85166 -8.43276,4.44596 -0.88058,7.69008 -1.01422,7.64982 24.06971,7.25232 L 1002,488.66667 Z m 116.6667,-13.64622 c 0.6664,-18.97191 0.6682,-18.98114 4.6666,-22.86471 5.0556,-4.9104 8.7652,-6.01856 12.07,-3.60561 2.3377,1.70682 2.6632,4.0684 3.2634,23.67292 l 0.6666,21.77696 h 6.6667 6.6667 l 0.405,-21.33334 c 0.4575,-24.09177 -0.575,-29.55642 -6.5314,-34.5684 -5.3989,-4.54289 -16.6213,-4.83506 -23.4565,-0.61072 -4.2489,2.626 -4.6784,2.6648 -6.2162,0.56172 -1.1369,-1.55476 -3.0887,-2.1225 -6.2598,-1.82088 l -4.6078,0.43828 -0.3619,27.29734 c -0.199,15.01353 -0.054,28.09829 0.3211,29.07725 0.4589,1.19577 2.5468,1.64517 6.3619,1.36933 L 1118,488.66667 Z M 985.33333,421.33333 c 7.14875,-7.14874 -2.27868,-19.09481 -11.31914,-14.34317 -3.61118,1.89803 -4.63622,3.65975 -4.66044,8.00984 -0.0268,4.81771 4.30089,9 9.31292,9 2.22222,0 5.18518,-1.18519 6.66666,-2.66667 z M 187.17252,341.45808 c 11.66123,-11.89424 12.96299,-13.68824 11.34608,-15.63648 -1.00455,-1.21041 -21.63219,-18.67487 -45.83919,-38.80992 -24.20701,-20.13504 -44.16446,-37.00487 -44.34988,-37.48851 -0.18543,-0.48362 20.06457,-17.59722 45,-38.03021 26.15411,-21.43161 45.33714,-38.07957 45.33714,-39.34575 0,-3.4518 -27.33151,-30.02237 -29.87728,-29.04546 -4.06991,1.56177 -126.231431,105.34529 -125.845422,106.91322 0.352744,1.4328 116.011742,99.64192 123.595512,104.94823 2.11699,1.48124 3.92876,1.85049 5.33333,1.08697 1.16995,-0.63598 8.05483,-7.20242 15.29971,-14.59209 z m 405.30169,13.76168 c 11.21571,-2.89356 25.11291,-10.42952 33.69112,-18.26952 8.12772,-7.42828 8.27174,-7.32388 8.80494,6.38309 l 0.36306,9.33334 h 20 20 l 0.34506,-71.07503 c 0.38048,-78.37208 0.0863,-82.02047 -7.7143,-95.6544 -11.46998,-20.04744 -30.24114,-28.32851 -67.04594,-29.57792 -23.46418,-0.79653 -38.15746,0.68151 -58.25148,5.85968 C 523.19809,167.236 524,166.1878 524,186.61872 c 0,9.47315 0.54535,17.56095 1.21188,17.97289 0.66655,0.41194 7.41655,-1.32701 15,-3.86433 19.43525,-6.50277 36.11912,-9.16301 52.45479,-8.36392 25.85652,1.26484 36.00441,10.62327 35.06769,32.33957 L 627.33333,234 l -26.66666,0.83844 c -21.0518,0.66189 -28.91262,1.4384 -37.33334,3.68787 -24.4274,6.52538 -40.90368,18.16941 -49.0103,34.63629 -3.87651,7.87432 -4.34828,10.14597 -4.79055,23.06712 -0.40109,11.71856 0.0184,16.00824 2.29997,23.51989 5.02655,16.54878 16.99426,28.93398 33.34403,34.50718 11.08953,3.78012 34.52841,4.25733 47.29773,0.96297 z m -18.2912,-37.17284 c -20.29962,-7.23661 -20.65714,-34.09808 -0.58433,-43.90364 8.6668,-4.23373 23.96779,-6.42447 41.06799,-5.87996 l 12.66666,0.40335 0.37994,12.86069 0.37993,12.86069 -10.37993,8.96724 c -17.48203,15.10274 -30.27007,19.41875 -43.53026,14.69163 z m 744.48589,-14.52761 c 45.2234,-38.0945 61.3732,-52.43603 61.0728,-54.23439 -0.509,-3.0476 -123.4822,-106.61825 -126.5917,-106.61825 -2.874,0 -27.8167,26.4849 -27.8167,29.53666 0,1.3639 17.9053,17.12524 44.6667,39.31839 24.5667,20.37307 44.6667,37.69657 44.6667,38.49667 0,0.80009 -19.0751,17.15164 -42.3891,36.33677 -23.314,19.18513 -43.8261,36.41163 -45.5824,38.28111 l -3.1932,3.39905 14.7872,14.78717 c 11.2658,11.26586 15.2767,14.51322 16.8428,13.63675 1.1307,-0.63273 29.7223,-24.45571 63.5369,-52.93993 z M 308,288.66667 l 0.66667,-64 5.16734,-10 c 6.76235,-13.08671 9.59503,-16.9696 14.06682,-19.28206 4.95844,-2.5641 9.06244,-1.24989 11.81924,3.78486 2.05024,3.74437 2.34709,11.6863 2.9466,78.83053 l 0.66666,74.66667 H 362.66667 382 L 382.66667,290 l 0.66666,-62.66667 4.28146,-9.68436 c 8.20384,-18.55656 16.22573,-26.63554 22.90034,-23.0634 6.10511,3.26735 6.116,3.39968 6.8182,82.74776 L 418,352.66667 h 20 20 v -79.33334 c 0,-78.645 -0.0261,-79.41644 -3.01145,-88.91137 -3.73631,-11.88344 -9.75023,-19.95001 -18.06263,-24.22772 -5.52788,-2.84475 -8.12491,-3.27808 -19.38913,-3.23521 -10.38684,0.0395 -14.07883,0.59664 -18.3315,2.76618 -5.73912,2.92788 -14.46113,11.67976 -18.56721,18.6308 -1.40051,2.37087 -2.96879,4.31066 -3.48507,4.31066 -0.51629,0 -1.89842,-2.88947 -3.07142,-6.42104 C 371.72948,169.16411 364.341,161.0632 358,158.61339 c -2.2,-0.84995 -9.42689,-1.56067 -16.05976,-1.57938 -9.57847,-0.0271 -13.16351,0.52908 -17.42428,2.70276 -5.88213,3.00084 -13.84043,11.13346 -17.14144,17.51691 -1.16032,2.24381 -2.66903,4.07965 -3.35268,4.07965 -0.68365,0 -1.41824,-4.65 -1.63243,-10.33333 L 302,160.66667 h -16.66667 -16.66666 l -0.34503,94.66666 c -0.18976,52.06667 -0.0523,95.43322 0.3056,96.37011 0.49536,1.29693 5.19148,1.61512 19.67836,1.33333 l 19.02773,-0.3701 z m 604.66667,46 v -18 L 886,316 859.33333,315.33333 858.66667,238.66667 858,162 h -51.33333 -51.33334 v 17.33333 17.33334 L 782,197.33333 808.66667,198 v 58.66667 58.66666 l -30,0.66667 -30,0.66667 -0.37646,16.5927 c -0.20705,9.12599 -0.0741,17.38062 0.29543,18.3436 0.54663,1.42448 15.90372,1.68683 82.37645,1.4073 l 81.70458,-0.3436 z M 1028,291.13884 c 0.5749,-53.0548 0.9522,-61.86827 2.7404,-64 1.1405,-1.35969 4.9435,-5.77217 8.451,-9.80551 17.6833,-20.33444 34.0031,-25.83464 46.7961,-15.77161 7.9846,6.28065 7.9502,5.95661 8.6792,81.77161 l 0.6666,69.33334 H 1118.6667 1142 l 0.3457,-67.85406 c 0.3822,-75.0402 -0.258,-83.48448 -7.4815,-98.67982 -5.755,-12.10616 -12.1235,-18.6249 -23.8646,-24.42768 -9.6418,-4.76522 -10.9921,-5.06151 -25.1085,-5.50963 -23.2458,-0.73792 -38.643,5.01623 -53.9183,20.14999 -4.4403,4.39917 -8.385,7.68674 -8.7661,7.3057 -0.381,-0.38104 -1.1084,-5.70842 -1.6164,-11.83865 l -0.9236,-11.14585 H 1001.3333 982 l -0.34503,94.66666 c -0.18976,52.06667 -0.0531,95.43124 0.30391,96.36571 0.49795,1.30371 5.85225,1.61395 23.01172,1.33333 l 22.3627,-0.3657 z M 846.09701,134.44851 c 9.87476,-5.13383 14.35964,-12.27439 15.01707,-23.90929 0.66115,-11.700796 -2.01208,-19.297708 -9.01771,-25.626865 -6.68812,-6.042314 -13.01433,-7.978756 -24.03214,-7.356195 -11.09523,0.626937 -18.2192,4.820688 -23.5021,13.835253 -4.75858,8.119922 -5.1976,22.445557 -0.938,30.608587 8.07628,15.47725 26.34698,20.83227 42.47288,12.44851 z"
       id="path1017"
       inkscape:connector-curvature="0" />
    <path
       style="fill:#515151;stroke-width:1.33333337"
       d="M 0,288 V 0 h 724 724 V 288 576 H 724 0 Z m 1068.3568,222.21539 c 2.3934,-1 6.2922,-4.02843 8.664,-6.72984 3.4207,-3.8959 4.3125,-6.08884 4.3125,-10.60372 0,-4.73535 -0.7705,-6.43891 -4.5845,-10.13558 -4.344,-4.21032 -5.3047,-4.50873 -18.3067,-5.68613 -13.6899,-1.23971 -17.1088,-2.41671 -17.1088,-5.89004 0,-1.38761 2.3145,-1.83675 9.4652,-1.83675 16.6051,0 23.8682,-5.85438 23.8682,-19.23882 0,-6.76659 0.3235,-7.61683 3.3333,-8.76118 2.6593,-1.01108 3.3333,-2.18997 3.3333,-5.83041 v -4.56307 l -17.7991,-0.95332 c -21.2399,-1.1376 -24.4648,-0.57132 -30.1499,5.29426 -5.1536,5.31716 -6.7325,13.92744 -4.0464,22.06648 1.4622,4.43032 1.3933,5.82364 -0.483,9.77781 -2.6047,5.48884 -2.7111,7.90633 -0.6045,13.73193 1.3565,3.7513 1.2446,4.75438 -0.7797,6.99118 -1.2998,1.43633 -2.6825,4.99056 -3.0725,7.89829 -0.6226,4.64193 -0.1615,5.87853 3.7797,10.13809 3.1772,3.43382 6.2419,5.21267 10.4888,6.08806 7.6442,1.57566 24.0352,0.60554 29.6901,-1.75724 z m -25.3935,-10.95766 c -3.67,-2.57057 -3.7583,-5.12937 -0.2966,-8.59106 2.9849,-2.98494 8.6015,-3.4104 16.407,-1.24288 6.6704,1.85229 7.7038,4.80498 3.0752,8.78632 -4.361,3.75118 -14.5327,4.3066 -19.1856,1.04762 z M 1045.3333,456 c -3.4275,-3.42749 -3.3916,-8.05204 0.097,-12.48685 3.4971,-4.44583 8.3331,-4.53788 12.6305,-0.24042 3.8101,3.81003 3.952,4.8796 1.3221,9.96524 -3.1224,6.03804 -9.5163,7.29506 -14.0494,2.76203 z m -289.21701,31.05967 c 3.86212,-2.27464 4.12788,-2.27759 5.37299,-0.0597 0.94113,1.67646 2.98035,2.33334 7.24364,2.33334 h 5.93375 V 448.6666 407.99993 h -7.27726 -7.27724 l -0.38942,10.33334 -0.38942,10.33333 L 754,429.00035 c -13.57825,0.84972 -16.85473,1.84312 -22.30765,6.76352 -7.32578,6.61042 -9.02568,11.30064 -9.02568,24.9028 0,15.8926 3.6675,24.05997 12.66666,28.20814 5.02687,2.31714 15.28844,1.42091 20.78296,-1.81514 z m -13.99777,-13.82864 c -4.48372,-5.3286 -5.09964,-16.84367 -1.29451,-24.20196 3.24228,-6.26988 13.7556,-9.91612 17.57599,-6.09574 2.41144,2.41144 2.10431,22.41998 -0.399,25.99396 -1.80673,2.57948 -9.921,8.40604 -11.70652,8.40604 -0.39825,0 -2.27743,-1.84604 -4.17596,-4.1023 z m 104.28357,15.20144 c 2.67559,-0.6592 3.01724,-1.46135 2.66667,-6.26094 l -0.40209,-5.50486 -11.03024,0.48256 c -6.88532,0.30122 -12.54563,-0.14512 -15.06288,-1.1878 -4.14412,-1.71655 -8.64016,-8.36294 -7.21602,-10.66726 C 815.81044,464.56136 823.93089,464 834.07869,464 H 852 v -9.80283 c 0,-11.11802 -2.58144,-16.45385 -10.56224,-21.8321 -3.71212,-2.5016 -6.29449,-3.03174 -14.76821,-3.03174 -9.22407,0 -10.81471,0.39499 -15.62588,3.88019 -9.65048,6.99077 -14.14002,21.87147 -11.06603,36.67876 2.00865,9.67563 8.88947,17.21617 17.59121,19.27787 5.49376,1.30162 22.30139,0.87161 28.83324,-0.73768 z m -29.7428,-37.77774 c -1.52569,-2.46862 0.81792,-6.66065 4.90546,-8.7744 3.33533,-1.72477 4.72706,-1.80684 7.95646,-0.46917 4.0442,1.67516 6.47879,4.86972 6.47879,8.50119 0,1.69413 -1.74448,2.08765 -9.25464,2.08765 -5.09005,0 -9.62879,-0.60537 -10.08607,-1.34527 z m 98.40707,37.19375 c 1.61351,-0.8292 4.58364,-3.04659 6.60031,-4.92752 3.24094,-3.0228 3.66666,-4.38339 3.66666,-11.71856 0,-7.56319 -0.35057,-8.59367 -3.95552,-11.62703 -2.17553,-1.8306 -7.86524,-4.62942 -12.6438,-6.21962 -4.77856,-1.5902 -10.04858,-4.04579 -11.71116,-5.45686 L 894,445.33333 l 3.30919,-2.79742 c 2.83545,-2.39695 4.26705,-2.65478 10,-1.80099 12.72112,1.89453 13.31,1.75971 13.78178,-3.15535 0.69366,-7.22641 -1.18214,-8.24624 -15.16744,-8.24624 -13.79178,0 -18.18772,1.18036 -23.5902,6.33428 -3.14961,3.0047 -3.66666,4.55403 -3.66666,10.98695 0,6.71931 0.44536,7.91032 4.33333,11.58849 2.50823,2.37288 8.05868,5.31498 13.1784,6.98538 4.86479,1.58722 9.95683,4.11434 11.31564,5.61581 2.40861,2.66149 2.40415,2.77852 -0.17841,4.66743 -4.47682,3.27438 -8.43334,3.5678 -17.72128,1.31421 -4.91023,-1.1914 -9.40904,-2.16461 -9.99736,-2.16269 -0.58832,0.001 -0.88832,3.15348 -0.66667,7.00348 l 0.40301,7 6.66667,0.87344 c 8.84269,1.15854 25.39484,0.19522 29.06636,-1.69163 z m 87.60034,-4.51515 v -6 h -6.40003 c -3.52,0 -7.12,-0.72 -8,-1.6 -1.11356,-1.11356 -1.6,-8.20741 -1.6,-23.33333 v -21.73333 h -16 -16 V 436 v 5.33333 h 7.06666 c 3.88667,0 7.78667,0.72 8.66667,1.6 2.29347,2.29347 2.20011,30.90878 -0.10707,32.82358 -0.9389,0.77921 -4.9889,1.60268 -9,1.82992 -6.90244,0.39105 -7.31609,0.61552 -7.72568,4.19246 -0.87085,7.60495 -1.0397,7.55404 25.05758,7.55404 h 24.04187 z m 116.005,-11.66666 c 0,-15.14083 0.3753,-18.27404 2.5953,-21.91491 3.0237,-4.95909 7.0243,-7.42229 11.1017,-6.83548 5.1061,0.73485 6.2572,5.63949 6.2783,26.75039 l 0.02,19.66666 h 7.4141 7.4142 l -0.4142,-25.26258 -0.4141,-25.2626 -4.5949,-4.7374 c -4.2947,-4.42787 -5.1371,-4.73742 -12.892,-4.73742 -5.4384,0 -9.7211,0.80392 -12.4305,2.33334 -3.3355,1.88292 -4.3471,1.99492 -5.2402,0.58017 -0.7155,-1.13341 -3.181,-1.60475 -6.9746,-1.33333 l -5.8678,0.41982 -0.3619,27.29734 c -0.1991,15.01353 -0.068,28.06353 0.2915,29 0.4102,1.06916 3.1494,1.70266 7.3619,1.70266 h 6.7085 l 0.01,-17.66666 z M 985.56168,421.79335 c 3.32176,-3.00615 3.09496,-9.58918 -0.46076,-13.37408 -3.44252,-3.66439 -9.78915,-4.08306 -13.32927,-0.87928 -3.08266,2.78977 -3.2138,10.72646 -0.23166,14.02169 2.78977,3.08267 10.72646,3.2138 14.02169,0.23167 z M 186.00975,342.65688 c 11.19544,-11.23025 14.3209,-15.11508 13.3106,-16.54453 -0.72619,-1.02744 -21.31028,-18.45323 -45.74243,-38.72398 -24.43215,-20.27073 -44.19579,-37.57569 -43.91921,-38.45546 0.27658,-0.87976 19.8091,-17.49958 43.4056,-36.93291 23.59649,-19.43333 43.92172,-36.36635 45.16716,-37.62891 2.13542,-2.16478 1.43364,-3.15241 -12.31684,-17.33333 -8.01971,-8.27077 -15.26314,-14.96579 -16.09648,-14.87783 -2.40311,0.25367 -127.152554,105.81006 -127.141907,107.58076 0.0053,0.87596 10.001729,9.99264 22.214362,20.25931 12.212634,10.26667 40.532825,34.11667 62.933765,53 22.40094,18.88333 41.3647,34.33333 42.14171,34.33333 0.777,0 7.99665,-6.6044 16.04367,-14.67645 z m 407.7978,12.5642 c 10.96106,-2.82609 22.45356,-9.1042 31.05301,-16.96361 3.88713,-3.55262 7.68369,-6.07848 8.4368,-5.61303 0.75312,0.46545 1.36931,5.32649 1.36931,10.80231 v 9.95604 L 655,353.03473 l 20.33333,-0.36806 0.34496,-71.74214 c 0.37452,-77.8914 -0.009,-83.09562 -7.00172,-95.0279 -5.0666,-8.64551 -18.13081,-19.91327 -26.9638,-23.25602 -25.267,-9.56206 -75.8272,-8.79262 -107.71277,1.63919 l -9.33333,3.05353 -0.37244,18.5609 c -0.20484,10.20849 0.11,19.04333 0.69965,19.63298 0.58965,0.58966 4.87855,-0.46538 9.53087,-2.34454 18.06348,-7.29616 32.77802,-10.22412 52.14192,-10.37539 17.46665,-0.13645 18.23704,-0.0221 26,3.85939 6.90018,3.45009 8.50408,4.99521 11.66666,11.23908 2.827,5.58134 3.66667,9.13161 3.66667,15.50341 0,5.00211 -0.65789,8.79756 -1.66667,9.61519 -0.9316,0.75508 -13.13368,1.63508 -27.66666,1.99528 -28.58547,0.7085 -39.56456,2.73949 -55.74948,10.31292 -10.8686,5.08577 -24.39207,17.97506 -29.26059,27.88845 -3.22215,6.56101 -3.71239,9.29009 -4.12615,22.96923 -0.35117,11.61002 0.0893,17.49244 1.74734,23.33333 4.48674,15.80627 18.36092,30.30659 33.68357,35.20373 10.20444,3.26136 37.05912,3.53283 48.84619,0.49379 z m -16.78883,-36.54869 c -10.69093,-3.2191 -18.29349,-12.3644 -18.29349,-22.00572 0,-5.12487 4.01422,-13.83124 8.11549,-17.60154 7.84009,-7.20741 23.60912,-10.94109 46.55928,-11.02396 7.14087,-0.0257 11.99777,0.5566 13,1.55883 0.98393,0.98393 1.6,5.80421 1.6,12.51896 0,12.30051 -0.10093,12.49077 -12,22.61331 -13.96137,11.87698 -28.53025,17.08696 -38.98128,13.94012 z m 739.34778,-12.97638 c 33.2752,-28.03385 61.6152,-52.20253 62.9778,-53.70816 2.1488,-2.3743 2.224,-2.98688 0.5666,-4.61689 -4.1177,-4.04975 -125.8756,-106.03763 -126.5927,-106.03763 -1.2041,0 -17.3919,16.24611 -23.7283,23.8137 -3.1588,3.77264 -5.3429,7.50726 -4.8535,8.29916 0.4894,0.79189 20.4739,17.69109 44.4101,37.55377 23.9361,19.86269 43.9147,36.70893 44.3968,37.43611 0.4822,0.72716 0.5969,1.97652 0.255,2.77636 -0.3419,0.79982 -20.6864,17.92652 -45.21,38.0593 -24.5236,20.13279 -44.5883,37.22299 -44.5883,37.97823 0,2.16196 28.4811,30.18532 30.2664,29.77995 0.8798,-0.19979 28.8248,-23.30003 62.1001,-51.3339 z M 308,289.33333 308.66667,226 l 7.14442,-13.70711 c 5.21192,-9.99945 8.21174,-14.25905 11.09024,-15.74758 5.62802,-2.91035 9.22388,-1.90566 12.36448,3.45469 2.6538,4.52947 2.74638,6.85211 3.14855,79 l 0.41437,74.33333 h 19.91896 19.91898 v -61.23765 -61.23764 l 5.58732,-12.9732 c 9.25514,-21.48955 18.54024,-28.30036 25.61414,-18.78849 2.74491,3.6909 2.81131,5.19842 3.4652,78.66666 L 418,352.66667 h 20 20 v -80 c 0,-79.95744 -10e-4,-80.00524 -3.09305,-89.84668 -3.95098,-12.57786 -13.29522,-22.75944 -23.1696,-25.24583 -7.80236,-1.96467 -21.41347,-2.01941 -28.277,-0.11373 -5.6879,1.57924 -17.72291,12.08026 -22.26172,19.42421 -1.5122,2.44679 -3.25399,4.44871 -3.87064,4.44871 -0.61666,0 -1.83647,-2.25 -2.71072,-5 -2.3407,-7.36282 -12.34624,-17.11398 -19.37699,-18.88435 -7.33965,-1.84815 -19.75436,-1.84669 -26.41639,0.003 -5.6728,1.5751 -16.54461,10.95724 -20.94216,18.07262 -1.52124,2.46183 -3.31696,4.47571 -3.99048,4.47571 -0.67352,0 -1.22458,-4.51741 -1.22458,-10.03871 V 159.9226 L 285,160.29463 l -17.66667,0.37204 -0.34502,94.66666 c -0.18976,52.06667 -0.0524,95.43278 0.30522,96.36914 0.49596,1.2985 5.32351,1.61488 20.34503,1.33333 l 19.69477,-0.36913 z m 604.66667,45.33334 v -18 L 886,316 859.33333,315.33333 858.66667,238 858,160.66667 h -51.33333 -51.33334 v 18 18 L 782,197.33333 808.66667,198 v 58.66667 58.66666 L 778.33333,315.69169 748,316.05007 v 18.6518 18.65181 l 82.33333,-0.34351 82.33334,-0.3435 z M 1028,292.86731 v -60.46603 l 3.8354,-5.71075 c 6.3067,-9.39048 19.7703,-22.25553 27.1282,-25.9221 13.379,-6.66706 26.8331,-3.18684 32.1487,8.31596 2.8127,6.08658 2.905,8.03301 3.5544,74.91561 l 0.6666,68.66667 H 1118.6667 1142 L 1142.3462,284 c 0.3754,-74.47152 -0.2536,-83.6586 -6.6834,-97.60557 -4.8545,-10.53012 -14.3087,-20.22715 -24.7189,-25.35367 -8.316,-4.09525 -9.924,-4.40404 -25.2245,-4.84393 -24.7318,-0.71103 -37.4346,3.93622 -53.4749,19.56352 -3.8989,3.79848 -7.6012,6.90632 -8.2272,6.90632 -0.6261,0 -1.5222,-4.05 -1.9913,-9 -0.4691,-4.95 -0.9751,-9.9 -1.1244,-11 -0.2276,-1.67674 -3.5012,-2 -20.2532,-2 h -19.98173 l -0.34503,94.66666 c -0.18976,52.06667 -0.0585,95.41667 0.29148,96.33334 0.47577,1.24574 6.53992,1.66666 24.01168,1.66666 H 1028 Z M 847.85352,134.2552 c 2.89524,-1.91598 6.95571,-5.70145 9.02327,-8.41217 3.1834,-4.17365 3.83638,-6.45679 4.26302,-14.9057 0.67892,-13.444465 -1.11542,-18.635761 -8.98597,-25.997743 -7.40753,-6.928878 -11.66977,-8.176614 -25.16233,-7.366063 -10.77792,0.647471 -16.85087,4.118067 -22.3127,12.751367 -4.38862,6.936924 -5.94668,19.793409 -3.35162,27.656489 2.16917,6.57265 9.96582,15.12157 16.67281,18.2815 7.90089,3.72243 22.69852,2.72727 29.85352,-2.00768 z"
       id="path1015"
       inkscape:connector-curvature="0" />
    <path
       style="fill:#2d2d2d;stroke-width:1.33333337"
       d="M 0,288 V 0 h 724 724 V 288 576 H 724 0 Z m 1067.1426,223.16543 c 14.3827,-5.07451 19.84,-20.09975 10.4593,-28.79662 -4.5264,-4.19645 -10.9122,-6.36461 -18.8009,-6.38349 -10.798,-0.0258 -16.1343,-1.3932 -16.1343,-4.13427 0,-2.15528 0.7551,-2.36321 5.9809,-1.64693 8.3176,1.14005 16.8747,-1.56311 22.1378,-6.99327 3.7036,-3.82117 4.4618,-5.70628 4.9369,-12.27424 0.4595,-6.3524 1.0797,-7.98734 3.4195,-9.01482 3.2066,-1.4081 4.5782,-7.71274 2.2803,-10.4815 -2.0779,-2.50373 -33.8799,-4.07788 -40.0888,-1.98432 -6.7857,2.28806 -11.4794,7.25604 -13.4268,14.2113 -1.4849,5.30361 -1.4044,6.96497 0.6126,12.64413 1.4691,4.13635 1.8714,7.11691 1.095,8.11343 -3.3249,4.26762 -4.2307,10.44738 -2.2324,15.23 1.6894,4.0433 1.7134,5.08072 0.1592,6.88616 -3.3141,3.84969 -4.8902,10.57548 -3.4001,14.5089 2.793,7.37256 6.2712,9.54283 20.5259,12.80743 4.0899,0.93668 16.3548,-0.53227 22.4759,-2.69189 z M 1045,499.78363 c -3.9467,-1.44146 -4.9933,-5.92363 -2.0667,-8.8503 1.9613,-1.96125 14.9453,-2.11558 18.4877,-0.21976 4.2007,2.24818 3.2009,6.49598 -2.0448,8.6878 -5.2698,2.20186 -9.1143,2.30408 -14.3762,0.38226 z m 0.6,-44.0503 c -1.965,-1.96504 -2.0835,-8.33849 -0.2198,-11.82098 1.7196,-3.21306 9.4949,-3.51339 12.5246,-0.48378 4.8921,4.89215 0.7566,13.90476 -6.3804,13.90476 -2.3784,0 -5.0444,-0.72 -5.9244,-1.6 z m -293.49729,33.5654 c 7.18822,-2.42153 8.22926,-2.49057 10.05317,-0.66666 2.42361,2.42361 9.98665,2.69206 12.24412,0.4346 1.17113,-1.17114 1.6,-12 1.6,-40.4 0,-28.4 -0.42887,-39.22887 -1.6,-40.4 -2.07243,-2.07243 -12.06091,-2.07243 -14.13333,0 -0.93072,0.93072 -1.6,5.39258 -1.6,10.66666 V 428 h -5.758 c -14.61187,0 -26.93211,7.99896 -30.14584,19.57229 -3.40171,12.25027 -0.0465,32.43936 6.35353,38.23135 2.11248,1.91177 11.09265,5.84699 13.92571,6.10241 0.57313,0.0517 4.65041,-1.12162 9.06064,-2.60732 z M 742.09812,473 c -2.90843,-4.44409 -3.88343,-13.03652 -2.19204,-19.31785 1.89323,-7.03092 6.81523,-11.01548 13.60707,-11.01548 h 5.15352 v 12.52854 12.52855 l -4.71307,4.13812 c -5.58181,4.90089 -9.16764,5.24513 -11.85548,1.13812 z m 95.79785,17.6132 c 10.9489,-1.58251 12.7707,-2.82507 12.7707,-8.7102 0,-5.86536 -2.34455,-6.94909 -12.38591,-5.72524 -9.89504,1.20601 -17.39869,-0.46765 -20.23195,-4.51268 -4.1487,-5.92311 -3.17948,-6.33175 15.01786,-6.33175 11.49629,0 17.58889,-0.52222 18.66666,-1.6 4.29683,-4.29682 0.36596,-23.76102 -5.92716,-29.34914 -11.26934,-10.0069 -33.30973,-7.80655 -41.17581,4.11068 -5.12309,7.76158 -7.78021,20.28248 -6.03305,28.42916 3.1019,14.46374 7.60977,19.57589 20.26356,22.97994 8.76893,2.35898 7.85637,2.32498 19.0351,0.70923 z m -21.2224,-41.26869 c -1.31173,-2.12244 5.54379,-8.01118 9.32643,-8.01118 3.40969,0 10,5.23231 10,7.9394 0,1.79938 -18.21689,1.86703 -19.32643,0.0717 z m 98.65976,38.7356 C 923.93209,484.27575 926,481.02912 926,471.33333 926,461.09287 924.06443,458.51496 913.48531,454.66556 899.43468,449.553 896,447.68507 896,445.15624 c 0,-3.41133 5.5878,-4.50901 15.01589,-2.94976 9.66479,1.59839 12.04787,0.29757 11.42239,-6.23493 -0.5796,-6.05334 -4.47493,-7.92675 -16.53409,-7.9519 -11.0723,-0.0231 -20.30414,2.77196 -24.73552,7.48896 -2.591,2.758 -3.16867,4.79579 -3.16867,11.17792 0,6.70978 0.51779,8.34548 3.68984,11.65639 2.12215,2.21505 6.93729,4.86811 11.33333,6.24447 10.2576,3.21156 14.97683,5.75337 14.97683,8.06661 0,4.66001 -9.25025,5.93359 -20.98611,2.88935 -8.1186,-2.10594 -9.68989,-1.17499 -9.66014,5.72332 0.0299,6.92536 1.47754,8.27074 10.15698,9.43941 10.15975,1.36797 21.13711,0.33191 27.8226,-2.62597 z m 87.06667,0.98656 c 0.88,-0.88 1.6,-3.46 1.6,-5.73334 C 1004,477.63388 1001.8611,476 994.4,476 H 988 v -21.73333 c 0,-15.12592 -0.48644,-22.21978 -1.6,-23.33334 -2.19419,-2.19418 -29.27248,-2.19418 -31.46667,0 -0.88,0.88 -1.6,3.16 -1.6,5.06667 0,5.11704 2.38643,6.66667 10.26667,6.66667 h 7.06667 V 459.33333 476 h -6.55762 c -9.68125,0 -10.77572,0.73675 -10.77572,7.25376 0,3.09932 0.4,6.03513 0.8889,6.52401 1.676,1.67602 46.45157,1.01512 48.17777,-0.7111 z m 116,0 c 1.0852,-1.08524 1.6,-7.34815 1.6,-19.46667 v -17.86667 l 4.5333,-4.53333 c 5.0052,-5.00515 7.5566,-5.58627 10.7048,-2.43809 1.7213,1.7213 2.0952,5.7189 2.0952,22.4 0,14.01481 0.4957,20.8004 1.6,21.90476 2.0725,2.07242 12.0609,2.07242 14.1334,0 2.1193,-2.11935 2.1804,-40.82011 0.075,-47.8457 -2.3997,-8.00942 -7.7337,-12.21812 -16.3955,-12.93641 -5.6438,-0.46804 -8.5177,0.0219 -12.5946,2.14684 -4.5593,2.37647 -5.5009,2.48972 -6.8804,0.8276 -1.6407,-1.977 -7.4149,-2.55447 -11.1626,-1.11635 -1.8336,0.70363 -2.109,4.59232 -2.109,29.77778 0,15.93265 0.4,29.36846 0.8889,29.85734 1.5178,1.51788 11.8246,0.97543 13.5111,-0.7111 z M 985.45229,422.83845 c 2.18056,-1.7657 3.08104,-3.8896 3.08104,-7.26701 0,-6.78532 -3.56698,-10.23811 -10.57672,-10.23811 -6.45017,0 -8.42672,1.75563 -9.51302,8.44974 -1.48154,9.12958 9.6188,15.03937 17.0087,9.05538 z m -797.76237,-80.5567 c 8.46617,-8.62232 13.40095,-14.64314 12.93257,-15.77876 -0.41653,-1.00998 -21.09508,-18.63632 -45.95232,-39.16966 C 129.81295,266.8 109.59329,249.6236 109.73761,249.16355 109.88192,248.70349 130.25,231.72405 155,211.43147 c 25.89941,-21.23502 45,-37.826 45,-39.08752 0,-2.63687 -26.41652,-30.17286 -29.49784,-30.7479 -2.78977,-0.52062 -129.458549,106.03327 -128.908348,108.43783 0.356083,1.5562 116.600638,100.41711 124.945668,106.26081 2.11908,1.48394 3.92737,1.85259 5.33333,1.08732 1.16995,-0.63681 8.28766,-7.43193 15.81711,-15.10026 z m 405.66072,13.62384 c 12.40907,-3.43874 23.70575,-9.38379 31.99855,-16.83972 3.50677,-3.1529 6.7378,-5.73254 7.18005,-5.73254 0.44225,0 0.80409,4.08 0.80409,9.06667 0,5.27408 0.66928,9.73595 1.6,10.66667 2.22959,2.22958 38.57042,2.22958 40.8,0 1.20392,-1.20392 1.6,-18.97483 1.6,-71.78672 0,-65.15063 -0.186,-70.91398 -2.59224,-80.3223 -3.26262,-12.75674 -5.51573,-17.09522 -13.07509,-25.17678 -7.45271,-7.96755 -11.77104,-10.68782 -23.68811,-14.92194 -24.9574,-8.86733 -64.7774,-8.34966 -98.64456,1.28239 -6.6,1.87708 -13.05,4.35617 -14.33333,5.50909 -2.00145,1.79807 -2.33333,4.63296 -2.33333,19.93142 0,14.35616 0.3774,17.98002 1.93474,18.57762 1.06411,0.40834 5.80214,-0.80477 10.52894,-2.69578 13.77913,-5.51252 29.73718,-8.86516 46.20737,-9.70775 32.93268,-1.68477 45.32895,6.38935 45.32895,29.52429 v 10.05312 h -20.49202 c -40.3844,0 -66.70924,8.2543 -83.47114,26.17282 -10.22639,10.93204 -13.58435,19.50394 -14.39803,36.75389 -1.03737,21.99245 6.24617,39.67008 20.97188,50.90004 14.64399,11.16765 41.9052,14.88859 64.07328,8.74551 z m -21.39069,-40.23892 c -11.84799,-5.98543 -15.58638,-19.24435 -8.72643,-30.94996 6.39105,-10.90551 20.45463,-15.30418 49.09981,-15.35696 l 14.33334,-0.0264 v 12.52672 12.52672 L 617,302.63719 c -18.47728,15.7702 -31.91815,19.65846 -45.04005,13.02948 z m 747.37335,-11.298 c 46.992,-39.66835 61.3334,-52.46811 61.3334,-54.74064 0,-2.27628 -14.5644,-15.21352 -62.6273,-55.63038 -34.445,-28.96537 -63.6451,-52.66432 -64.8891,-52.66432 -2.9405,0 -29.1503,27.81552 -29.1503,30.93615 0,1.50689 16.3382,15.95349 44.3333,39.20063 24.3834,20.24786 44.3334,37.59157 44.3334,38.54157 0,0.94999 -19.8,18.04013 -44,37.97808 -24.2,19.93795 -44.5127,37.15533 -45.1392,38.26084 -0.8576,1.51312 2.65,5.79927 14.1883,17.33756 13.1345,13.13451 15.6821,15.12919 17.8059,13.94131 1.363,-0.76243 30.0783,-24.68479 63.8116,-53.1608 z m -1011.59997,48.698 c 1.19818,-1.19818 1.60803,-17.35495 1.63196,-64.33334 l 0.032,-62.73333 6.96804,-13.26176 c 7.2935,-13.88117 12.27987,-18.69923 17.84606,-17.24364 6.3115,1.65049 6.42898,3.05089 6.86196,81.79044 0.27428,49.88028 0.86992,74.50993 1.82993,75.66667 1.94003,2.3376 37.17157,2.44014 39.49676,0.11493 1.19772,-1.19772 1.6,-16.9074 1.6,-62.48328 v -60.88328 l 4.03833,-9.79307 c 7.8893,-19.13174 15.75338,-27.5864 22.36712,-24.04684 5.30964,2.84164 5.59455,7.05522 5.59455,82.73876 0,54.89711 0.39459,73.2623 1.6,74.46771 2.45853,2.45853 38.89771,2.21343 40.96337,-0.27553 1.15788,-1.39516 1.45342,-21.971 1.15387,-80.33334 L 459.31455,194 455.54316,182.8224 c -4.53756,-13.4484 -12.37813,-22.40609 -22.20983,-25.37427 -8.21148,-2.47904 -26.30161,-2.19145 -32.8197,0.52176 -5.7643,2.39943 -15.24242,11.05883 -19.36995,17.69678 C 379.66171,178.05 377.9222,180 377.27811,180 c -0.64408,0 -1.87666,-2.35508 -2.73906,-5.23349 -1.8683,-6.23583 -10.66118,-15.12496 -17.07134,-17.2582 -7.32672,-2.43827 -26.57047,-1.85958 -32.80104,0.98637 -5.06215,2.31225 -13.32431,10.23147 -18.2634,17.50532 -2.23994,3.29877 -2.26412,3.24279 -2.33334,-5.4 -0.0395,-4.92213 -0.76817,-9.43157 -1.66993,-10.33333 -1.68059,-1.68059 -29.59468,-2.33699 -33.62428,-0.79068 -1.89628,0.72766 -2.10905,10.53625 -2.10905,97.22222 0,75.88276 0.35489,96.55611 1.66666,97.08542 3.70818,1.49628 37.80727,0.87577 39.4,-0.71696 z m 605.33334,0 c 1.07513,-1.07514 1.6,-7.11111 1.6,-18.4 0,-11.2889 -0.52487,-17.32487 -1.6,-18.4 -1.13387,-1.13387 -9.0939,-1.6 -27.32251,-1.6 h -25.72249 l -0.34418,-77 -0.34416,-77 -51.91149,-0.34922 c -40.64392,-0.27342 -52.14332,0.016 -52.97959,1.33334 -1.7665,2.78276 -1.3394,33.5854 0.49108,35.41588 1.13391,1.1339 9.0963,1.6 27.33334,1.6 H 808 v 58 58 h -29.06667 c -20.82962,0 -29.52008,0.45341 -30.66666,1.6 -1.07514,1.07513 -1.6,7.1111 -1.6,18.4 0,11.28889 0.52486,17.32486 1.6,18.4 2.31125,2.31125 162.48874,2.31125 164.8,0 z m 114.66663,0 c 1.1973,-1.19726 1.6,-16.77339 1.6,-61.88027 v -60.28027 l 5.1029,-6.45306 c 18.3642,-23.22351 33.5718,-31.07788 46.8666,-24.20551 3.4995,1.80893 7.0856,5.01676 8.6667,7.75244 2.5985,4.49592 2.711,7.20043 3.0767,73.91903 0.2598,47.40576 0.8371,69.80368 1.8299,71 1.9803,2.38608 45.1513,2.5202 47.5239,0.14764 2.437,-2.437 2.1633,-132.78254 -0.3074,-146.4 -6.308,-34.76679 -26.026,-52 -59.4975,-52 -20.1335,0 -36.9607,6.77094 -51.1067,20.56441 -7.662,7.47103 -8.7707,6.80369 -8.8013,-5.29775 -0.011,-4.46904 -0.734,-8.78024 -1.6204,-9.66666 -1.6842,-1.68419 -34.87382,-2.3578 -38.95765,-0.79068 C 980.21277,160.20365 980,170.01224 980,256.69821 c 0,75.88276 0.35489,96.55611 1.66667,97.08542 3.74848,1.51254 44.47093,0.87876 46.06663,-0.71696 z M 841.21472,137.91171 c 8.70863,-2.58619 17.46003,-10.86093 19.81216,-18.73307 C 867.77171,96.605073 853.43655,76 830.98705,76 c -18.71733,0 -30.61318,11.741961 -31.12382,30.72122 -0.40187,14.93647 6.30485,25.40968 19.59496,30.59947 8.06766,3.15043 12.71312,3.27662 21.75653,0.59102 z"
       id="path1013"
       inkscape:connector-curvature="0" />
    <path
       style="fill:#161616;stroke-width:1.33333337"
       d="M 0,288 V 0 h 724 724 V 288 576 H 724 0 Z m 1067.8082,223.89993 c 2.9505,-0.88397 7.2997,-3.60384 9.6649,-6.04413 3.5252,-3.63705 4.4102,-5.76131 4.9097,-11.78368 0.5763,-6.94943 0.3609,-7.59507 -3.9816,-11.93763 -4.8229,-4.82281 -6.103,-5.19445 -24.3011,-7.05448 -13.6867,-1.3989 -15.6231,-4.41334 -2.835,-4.41334 10.5391,0 16.2745,-2.14996 21.1305,-7.921 2.9517,-3.50796 3.6044,-5.59892 3.6044,-11.54764 0,-6.52146 0.3408,-7.39359 3.3333,-8.53136 2.7822,-1.05778 3.3334,-2.14167 3.3334,-6.55498 0,-2.90821 -0.4744,-5.58084 -1.0542,-5.93918 -0.5799,-0.35835 -9.7299,-1.03684 -20.3334,-1.50779 -21.314,-0.94663 -25.5542,0.0875 -31.0372,7.56929 -3.1956,4.36066 -4.4335,15.3856 -2.3867,21.25707 1.2253,3.51493 1.085,5.44907 -0.7422,10.23352 -1.8066,4.73069 -1.9758,6.93784 -0.854,11.14087 1.1738,4.39744 0.9837,6.0379 -1.1807,10.18797 -4.8429,9.28589 -0.7857,19.83172 8.7844,22.83355 9.6588,3.02962 23.8587,3.03504 33.9455,0.0133 z m -20.8709,-12.10753 c -5.3954,-1.51511 -6.6944,-4.37747 -3.559,-7.84207 3.9798,-4.39765 18.6053,-2.73922 20.2659,2.29803 1.2624,3.82971 -9.7721,7.49143 -16.7069,5.54404 z m -0.7306,-44.89739 c -6.9132,-7.63897 3.8467,-18.1749 11.1266,-10.89501 3.0745,3.07447 3.2524,4.39589 1.1338,8.42099 -2.901,5.51145 -8.4908,6.63941 -12.2604,2.47402 z m -290.40838,33.87595 c 3.53548,-1.82827 4.02225,-1.82839 4.72344,-10e-4 0.59369,1.54715 2.46929,1.94015 7.79667,1.63369 L 775.33333,490 v -41.33333 -41.33334 h -8 -8 l -0.66666,10 -0.66667,10 -9.42916,0.84295 c -10.75052,0.96107 -16.09653,3.29051 -21.04316,9.16925 -5.00377,5.94664 -6.53957,12.62176 -6.00236,26.0885 0.60211,15.0937 3.45775,21.25842 11.88527,25.65776 6.65033,3.4716 15.2935,3.34773 22.38773,-0.32083 z m -13.03488,-16.28411 c -2.80904,-3.57112 -3.40991,-6.79553 -2.82387,-15.15352 0.63748,-9.09162 7.28956,-15.52492 14.93384,-14.44265 2.96792,0.42019 3.14599,1.0246 3.50892,11.90989 l 0.38234,11.46726 -5.38618,4.86608 C 750.41609,473.81027 747.4376,476 746.7596,476 c -0.678,0 -2.47627,-1.58092 -3.99616,-3.51315 z m 104.84328,16.74254 c 2.85739,-1.08638 3.16221,-1.90918 2.79988,-7.55758 L 850,475.33333 l -12.94925,0.48664 -12.94927,0.48664 -4.23536,-4.23536 c -2.53355,-2.53356 -3.74951,-4.7212 -3.02621,-5.44449 0.66502,-0.66503 8.9981,-1.37811 18.51794,-1.58461 l 17.30882,-0.37548 0.39056,-9.60763 c 0.45921,-11.29689 -2.3479,-18.27843 -9.36038,-23.28009 -3.53337,-2.52018 -6.45316,-3.2016 -15.34737,-3.58178 -9.89105,-0.42277 -11.57257,-0.12453 -16.90107,2.99823 -8.8577,5.19096 -13.44194,15.25939 -13.41852,29.47127 0.0287,17.38401 6.11175,26.44233 20.08916,29.91465 5.74259,1.42659 24.4335,0.56967 29.48767,-1.35193 z m -30.03781,-40.75475 c 0.6912,-3.51459 7.03794,-7.55159 10.26297,-6.528 3.60161,1.14311 6.83479,4.36704 6.83479,6.81527 0,1.45761 -2.05748,1.90476 -8.76443,1.90476 -7.41777,0 -8.6982,-0.3368 -8.33333,-2.19203 z m 99.70002,39.55821 c 7.57212,-3.86301 9.39774,-7.19029 9.39774,-17.12792 0,-7.62053 -0.39246,-8.8683 -3.78643,-12.03876 -2.08253,-1.94537 -7.96215,-4.88193 -13.06581,-6.52566 -5.10367,-1.64375 -10.44978,-3.89282 -11.88024,-4.99791 -2.57572,-1.98984 -2.57508,-2.02956 0.0659,-4.10885 2.0648,-1.62571 4.17132,-1.87786 9.33334,-1.1172 3.66666,0.5403 8.46666,1.03512 10.66666,1.09957 3.80443,0.11147 4.02074,-0.17379 4.42392,-5.83444 0.59379,-8.33639 -1.31993,-9.38845 -17.01209,-9.3524 -20.88663,0.048 -28.07855,4.87149 -28.07855,18.83176 0,10.34257 3.60172,14.59195 15.70424,18.52813 11.91616,3.87558 15.61719,6.21532 13.62619,8.61432 -2.59755,3.12987 -8.80459,3.58619 -17.86667,1.3135 -4.79713,-1.20307 -9.33894,-1.80615 -10.0929,-1.34018 -1.96182,1.21247 -1.7015,13.42226 0.32197,15.10159 4.43377,3.67971 30.37047,2.9706 38.24277,-1.04555 z m 86.06437,-4.69952 v -6.66666 L 996,476 988.66667,475.33333 988,452.66667 987.33333,430 H 970.66667 954 v 6 6 l 8,0.66667 8,0.66666 v 16 16 l -7.96799,0.40887 c -4.3824,0.22487 -8.42321,1.12487 -8.97958,2 -1.26807,1.99455 -1.367,10.83212 -0.13504,12.06408 0.50456,0.50456 12.05456,0.75456 25.66666,0.55555 L 1003.3333,490 Z M 1120,471.08208 c 0.6598,-18.72436 0.7067,-18.95969 4.5828,-23 4.0456,-4.21708 9.1185,-5.33048 11.0052,-2.41541 0.5933,0.91666 1.3787,11.26666 1.7453,23 L 1138,490 h 8 8 l 0.4041,-22.66667 c 0.4546,-25.49366 -0.5185,-30.84296 -6.5305,-35.90173 -3.4933,-2.93941 -5.3596,-3.4316 -13.0126,-3.4316 -6.0681,0 -9.921,0.69112 -12.01,2.15431 -2.2632,1.58517 -3.4687,1.76129 -4.5634,0.66666 -2.3715,-2.37158 -13.8479,-1.8901 -14.8116,0.62142 -1.141,2.97342 -1.013,57.24282 0.1377,58.39356 0.5209,0.52089 4.2709,0.77089 8.3334,0.55556 L 1119.3333,490 Z M 987.25773,422.36999 C 992.64825,414.67393 987.30425,404 978.0606,404 971.50524,404 968,407.79596 968,414.89501 c 0,7.73152 2.79999,10.43832 10.79771,10.43832 5.08598,0 6.80654,-0.60266 8.46002,-2.96334 z m -800.2795,-78.01392 c 8.99029,-8.9624 14.33561,-15.31568 14.30294,-17 -0.0365,-1.88176 -13.62889,-13.90068 -45.2624,-40.02274 C 131.15315,266.8 110.92662,249.6236 111.07094,249.16355 c 0.14432,-0.46006 20.54659,-17.46755 45.33838,-37.79444 33.15487,-27.1838 44.96775,-37.60259 44.66667,-39.39535 -0.22512,-1.34055 -6.95284,-9.13675 -14.95047,-17.32489 -13.51613,-13.83811 -14.76592,-14.78512 -17.72987,-13.43466 -3.47217,1.58203 -118.726489,97.96268 -124.762483,104.3318 -2.333342,2.46212 -3.318396,4.55308 -2.666667,5.6605 2.341291,3.97832 126.54727,107.41109 129.01173,107.43476 1.60181,0.0153 8.30617,-5.61834 17,-14.2852 z m 406.82932,12.19702 c 10.35504,-2.6715 24.46185,-10.0269 32.06349,-16.71813 3.22932,-2.84256 6.20313,-5.16829 6.60848,-5.16829 0.40535,0 0.91328,4.35 1.12873,9.66666 L 634,354 h 21.33333 21.33334 l 0.36846,-72 c 0.3119,-60.94395 0.0525,-73.43319 -1.68889,-81.33333 -4.87639,-22.12195 -19.01368,-35.85274 -44.01291,-42.74734 -10.63992,-2.93441 -49.27778,-4.13146 -65.15504,-2.0186 -14.03398,1.86758 -36.34304,7.48726 -40.51162,10.20492 -2.88196,1.87887 -3,2.71222 -3,21.17974 0,11.49752 0.54094,19.55822 1.34592,20.05572 0.74025,0.4575 5.34606,-0.76848 10.23514,-2.72443 18.73272,-7.49427 32.96372,-10.32736 52.41894,-10.43552 14.21876,-0.0791 19.01653,0.37121 22.83904,2.14336 12.31833,5.71089 17.61114,14.60312 16.90246,28.39713 L 626,232.66667 l -26.66667,0.83844 c -21.0518,0.66189 -28.91261,1.4384 -37.33333,3.68786 -24.43996,6.52875 -40.90195,18.16727 -49.02183,34.65815 -3.98318,8.08955 -4.3475,9.94919 -4.78434,24.42089 -0.3908,12.94694 0.004,17.23456 2.27588,24.71411 5.085,16.74123 17.78302,29.7926 33.98116,34.92671 10.74512,3.40574 37.30204,3.75024 49.35668,0.64026 z m -18.2912,-39.8395 c -19.98043,-7.12283 -20.30407,-31.59435 -0.54568,-41.26122 8.33321,-4.07706 24.59758,-6.43273 40.37377,-5.84758 L 626,270 l 0.38317,11.52459 0.38318,11.52458 -10.38318,8.97002 c -11.62453,10.0424 -24.03825,16.67425 -31.04984,16.5879 -2.56666,-0.0316 -6.9843,-0.88369 -9.81698,-1.8935 z m 743.81695,-11.15655 c 38.2774,-32.34647 62.8166,-53.99011 63.0519,-55.61187 0.298,-2.05334 -13.9833,-14.73789 -63.0116,-55.96681 -34.8682,-29.32143 -64.513,-53.49312 -65.8771,-53.71487 -2.9998,-0.4876 -30.8298,28.44047 -30.8298,32.04618 0,1.43773 16.7559,16.21586 43.6666,38.51237 24.0167,19.89869 44.4211,36.87993 45.3431,37.73609 1.3115,1.21774 -8.1919,9.67259 -43.6484,38.8326 -31.6144,26.00026 -45.3304,38.07599 -45.3431,39.92083 -0.025,3.64028 27.7268,31.38 31.2924,31.27868 1.5295,-0.0435 29.7158,-22.91527 65.356,-53.0332 z M 309.33333,290 310,226 l 6.47651,-12.34917 c 3.56206,-6.79206 7.99298,-13.54206 9.84646,-15 5.08435,-3.99935 9.18666,-3.42303 11.97612,1.6825 2.16395,3.96063 2.42491,10.75531 3.03424,79 L 342,354 h 20.66667 20.66666 L 384,291.33333 384.66667,228.66667 388.45312,220 c 9.62559,-22.03163 18.56677,-29.46932 24.51615,-20.39365 2.17172,3.31293 2.4183,9.74037 3.03073,79 L 416.66667,354 H 438 459.33333 v -80.66667 c 0,-80.02922 -0.0239,-80.74236 -3.01145,-90.2447 -3.76944,-11.9888 -9.75369,-19.9518 -18.2986,-24.34916 -5.86403,-3.01774 -8.21923,-3.40614 -20.65436,-3.40614 -11.84449,0 -14.87753,0.45079 -19.42885,2.88762 -5.47034,2.92889 -15.0445,12.36861 -17.83711,17.58666 -2.14261,4.00352 -3.73656,3.56259 -4.81136,-1.33094 -1.53989,-7.0111 -10.53999,-15.51702 -19.03004,-17.98514 -9.83632,-2.85949 -25.57196,-1.9742 -33.01917,1.85768 -5.44446,2.80139 -13.48174,10.71132 -16.79902,16.53283 -1.63616,2.87131 -1.82944,2.37963 -2.44337,-6.21537 l -0.66667,-9.33334 -17.8964,-0.37364 c -13.4224,-0.28022 -18.1672,0.0531 -18.97958,1.33334 -1.24848,1.96748 -1.54232,189.06544 -0.302,192.29765 0.71497,1.8632 3.53621,2.09441 21.66666,1.77572 L 308.66667,354 Z M 914,334.66667 V 315.33333 L 887.33333,314.66667 860.66667,314 860,236.66667 l -0.66667,-77.33334 -50,-0.37137 c -27.5,-0.20427 -51.36637,-0.0387 -53.0364,0.36787 -3.00496,0.7316 -3.03257,0.93558 -2.66666,19.7047 L 754,198 l 26.66667,0.66667 26.66666,0.66666 V 256.66667 314 l -30,0.66667 -30,0.66666 -0.37388,17.93274 c -0.20564,9.863 -0.0728,18.71754 0.29536,19.67677 0.5433,1.41579 16.29823,1.6794 83.70722,1.4006 L 914,354 Z m 115.3333,-42.1945 c 0.5749,-53.0548 0.9523,-61.86826 2.7404,-64 15.9385,-19.00098 24.3401,-26.28286 33.5308,-29.06193 7.229,-2.18588 13.2443,-1.08172 19.0694,3.50036 7.9621,6.26297 7.9307,5.96624 8.6594,81.75607 L 1094,354 h 24.6667 24.6666 l 0.3462,-69.33333 c 0.3827,-76.66247 -0.203,-84.54784 -7.4048,-99.70223 -5.8305,-12.26891 -12.1577,-18.76844 -23.9416,-24.59387 -9.8362,-4.86256 -10.7538,-5.05342 -26.4611,-5.504 -12.4108,-0.35601 -18.1224,0.0675 -24.0718,1.78494 -11.205,3.23457 -21.6501,9.15634 -29.7099,16.84385 -3.8583,3.68001 -7.3149,6.3912 -7.6812,6.02484 -0.3664,-0.36636 -1.0583,-5.05827 -1.5376,-10.42648 l -0.8715,-9.76039 -20.5657,-0.36932 c -15.55942,-0.2794 -20.82881,0.0452 -21.64629,1.33334 -1.24582,1.96314 -1.53842,189.06434 -0.30072,192.28974 0.71862,1.87268 3.82656,2.09344 25.00001,1.77572 L 1028.6667,354 Z M 848.55557,135.46892 c 9.58594,-5.61772 13.34407,-12.40124 13.92319,-25.13161 0.5922,-13.017923 -1.88195,-20.283245 -9.14044,-26.840851 -6.69043,-6.0444 -13.28495,-7.92528 -25.60536,-7.303128 -8.0976,0.40891 -11.00284,1.184829 -15.44619,4.125298 -16.1318,10.675516 -18.35653,36.421071 -4.35476,50.394951 7.47402,7.45911 12.67135,9.28819 24.92704,8.7725 7.48055,-0.31477 10.8506,-1.17725 15.69652,-4.01716 z"
       id="path1011"
       inkscape:connector-curvature="0" />
    <path
       style="fill:#000000;stroke-width:1.33333337"
       d="M 0,288 V 0 h 724 724 V 288 576 H 724 0 Z m 1068.2075,224.59348 c 6.9102,-2.43808 11.5135,-6.46547 13.9643,-12.21732 5.7286,-13.44437 -4.4302,-25.58231 -21.5051,-25.69488 -7.9542,-0.0524 -16.6657,-1.37071 -16.6691,-2.5224 0,-0.45405 3.4486,-0.6452 7.6666,-0.42479 14.4985,0.75766 25.6691,-8.35865 25.6691,-20.94842 0,-5.10236 0.5124,-6.37812 3,-7.4695 2.2204,-0.9741 3.109,-2.63981 3.4194,-6.40922 0.2306,-2.80118 -0.2294,-5.87479 -1.0224,-6.83024 -0.9796,-1.18042 -7.3772,-2.043 -19.9609,-2.69135 -16.7093,-0.86091 -19.0852,-0.70096 -24.311,1.63667 -6.7461,3.01774 -9.4961,5.90382 -11.6029,12.17693 -1.956,5.82399 -1.8466,11.76145 0.3094,16.80104 1.4803,3.46024 1.3618,4.79171 -0.8779,9.86703 -2.1786,4.93692 -2.3535,6.6533 -1.1031,10.82681 1.2655,4.2236 1.0729,5.89367 -1.2971,11.25147 -6.9959,15.81536 6.5393,27.09017 30.3586,25.28872 4.535,-0.34299 10.8179,-1.53124 13.9621,-2.64055 z m -21.289,-13.50576 c -3.7673,-0.76763 -5.1207,-3.76756 -2.9044,-6.43803 2.7955,-3.3684 18.6526,-2.22704 18.6526,1.34256 0,3.73676 -8.6619,6.53939 -15.7482,5.09547 z m 0.075,-44.62761 c -2.2531,-2.25308 -2.0988,-8.43615 0.2593,-10.39319 2.5983,-2.1564 8.8181,-1.25573 10.5616,1.52939 2.4498,3.91349 -0.4914,9.66742 -5.1783,10.13046 -2.1904,0.21639 -4.7295,-0.35361 -5.6426,-1.26666 z m -292.49559,35.62718 c 3.02598,-1.56478 3.93046,-1.55914 6.11487,0.0381 3.13367,2.29138 12.92597,2.4692 15.12061,0.27456 1.17358,-1.17358 1.6,-12.2963 1.6,-41.73334 0,-29.43704 -0.42642,-40.55976 -1.6,-41.73333 -2.07602,-2.07603 -14.72397,-2.07603 -16.8,0 -0.92426,0.92427 -1.6,5.35203 -1.6,10.48412 v 8.88412 l -8.37254,0.67207 c -20.29888,1.6294 -29.74358,13.42797 -28.75499,35.92157 0.68303,15.54109 4.35791,22.89092 13.65248,27.30519 7.32551,3.4791 13.7612,3.44384 20.63957,-0.11307 z M 743.723,472.33333 c -1.113,-1.28333 -2.40327,-4.3447 -2.86727,-6.80306 C 738.68533,454.03104 744.2728,444 752.84848,444 h 4.48485 v 11.07177 c 0,10.7736 -0.1184,11.18656 -4.39681,15.33334 -5.04215,4.88704 -6.40081,5.17138 -9.21352,1.92822 z m 95.50631,19.6132 c 5.07612,-0.73368 10.02612,-1.99526 11,-2.8035 2.3305,-1.93415 2.28941,-12.38602 -0.0564,-14.33282 -1.31896,-1.09464 -4.38792,-1.1531 -11.03579,-0.21028 -5.0648,0.71832 -10.69264,0.94438 -12.50629,0.50235 -3.45832,-0.84289 -9.2975,-5.44933 -9.2975,-7.33469 0,-0.60551 7.68,-1.10092 17.06667,-1.10092 11.49629,0 17.58889,-0.52223 18.66667,-1.6 0.92621,-0.92622 1.58688,-5.27772 1.56885,-10.33334 -0.0633,-17.74825 -10.23396,-28.06666 -27.6648,-28.06666 -13.0744,0 -20.374,4.43978 -25.96205,15.79074 -3.58915,7.29059 -4.26792,10.17776 -4.26792,18.15352 0,17.20568 7.63453,27.69151 22.74392,31.23815 6.98424,1.63943 9.0072,1.64941 19.74464,0.0975 z m -20.56264,-43.73988 c 0,-1.82189 4.69524,-5.53998 6.99593,-5.53998 3.52292,0 6.33744,1.5087 7.75468,4.15686 1.24625,2.32864 0.76239,2.5098 -6.70371,2.5098 -4.4258,0 -8.0469,-0.50701 -8.0469,-1.12668 z m 98.78341,40.40086 C 925.08112,484.74056 928,479.96127 928,471.33333 c 0,-11.37085 -3.50281,-14.83805 -21.23139,-21.01561 -14.46936,-5.04187 -11.68742,-9.26597 4.29722,-6.52492 11.5819,1.98608 13.22925,0.99179 12.66505,-7.64423 -0.51959,-7.95297 -3.41571,-9.44046 -18.39755,-9.44922 -19.60309,-0.012 -29.3401,6.70637 -29.32834,20.23444 0.009,10.61261 4.85346,15.54916 19.99501,20.376 8.99236,2.8666 12.3176,5.49758 9.33333,7.38468 -2.90233,1.83529 -9.0186,1.58886 -17.88513,-0.72058 C 877.73075,471.44283 876,472.55543 876,481.33333 c 0,7.75882 1.93289,9.63731 11.18087,10.86626 11.10392,1.47556 23.07128,0.0553 30.26921,-3.59208 z M 1003.7333,490.4 c 0.88,-0.88 1.6,-4.06 1.6,-7.06667 0,-7.06201 -1.7774,-8.66666 -9.59997,-8.66666 h -6.4 v -21.73334 c 0,-15.12592 -0.48644,-22.21977 -1.6,-23.33333 -2.20649,-2.20649 -31.92684,-2.20649 -34.13333,0 -0.88,0.88 -1.6,3.76 -1.6,6.4 0,6.48648 1.94235,8 10.26667,8 h 7.06666 v 15.26971 15.26972 L 961,474.93637 l -8.33333,0.39696 -0.41308,6.49726 C 951.57475,492.50776 950.30464,492 977.69149,492 c 17.23255,0 24.91381,-0.47193 26.04181,-1.6 z m 116,0 c 1.0864,-1.08636 1.6,-7.37637 1.6,-19.59371 0,-17.71069 0.056,-18.05253 3.5828,-21.73333 3.9429,-4.11551 9.0123,-4.92001 10.2746,-1.63057 0.4451,1.15997 0.8093,10.93997 0.8093,21.73333 0,13.48555 0.5005,20.12479 1.6,21.22428 0.88,0.88 4.66,1.6 8.4,1.6 3.74,0 7.52,-0.72 8.4,-1.6 1.1218,-1.12177 1.5913,-8.39485 1.5707,-24.33333 -0.033,-25.92408 -1.5719,-31.83071 -9.5598,-36.7008 -5.4169,-3.30256 -16.7776,-3.6123 -22.5729,-0.61543 -3.0201,1.56179 -4.4806,1.70943 -5.8302,0.58937 -0.9903,-0.8219 -4.6972,-1.3096 -8.2375,-1.08376 l -6.437,0.41062 -0.6666,29.76798 c -0.3667,16.37239 -0.1869,30.62239 0.3996,31.66667 1.3344,2.37625 14.3561,2.60961 16.667,0.29868 z M 986.63275,424.03392 c 6.4799,-6.47991 4.00784,-17.18227 -4.62704,-20.03204 -8.75814,-2.89044 -15.33904,2.31003 -15.33904,12.12147 0,9.02281 13.50368,14.37297 19.96608,7.91057 z M 187.60284,344.93617 c 8.28511,-8.2851 15.06383,-16.06173 15.06383,-17.2814 0,-2.83726 2.10834,-0.97208 -47.8391,-42.32144 C 131.35331,265.9 112.264,249.62788 112.40689,249.17305 c 0.14288,-0.45481 20.15372,-17.12602 44.46855,-37.04714 24.31483,-19.92111 44.56579,-37.15055 45.00212,-38.28764 0.43635,-1.1371 0.32777,-2.8994 -0.24128,-3.91624 -1.38436,-2.47372 -29.818,-31.25536 -30.87744,-31.25536 -1.74676,0 -8.65019,5.56262 -48.75884,39.28878 -22.733333,19.11578 -43.483973,36.54588 -46.112533,38.73359 -31.18406,25.95387 -36.01313,30.46729 -35.624019,33.29555 0.275091,1.99948 19.469063,18.99165 60.403222,53.47417 C 169.81036,361.70471 167.70643,360 170.44932,360 c 1.14932,0 8.86841,-6.77872 17.15352,-15.06383 z m 404.87137,12.9487 c 10.0744,-2.60103 26.64452,-11.06678 34.02311,-17.38258 L 632,335.7922 v 8.50391 c 0,4.83636 0.69004,9.19393 1.6,10.10389 2.23668,2.23668 41.22999,2.23668 43.46667,0 1.2051,-1.20511 1.59513,-19.22207 1.58029,-73 -0.0217,-78.64536 -0.25363,-81.36812 -8.20088,-96.27871 -7.34265,-13.7762 -20.54616,-23.09372 -40.44608,-28.54216 -12.48813,-3.41914 -48.44532,-4.13393 -66.39163,-1.31977 -16.30921,2.55744 -34.00025,7.38027 -38.93654,10.61465 -3.30579,2.16604 -3.3385,2.37494 -3.3385,21.3268 0,14.12668 0.45626,19.51799 1.74207,20.58512 1.28599,1.06727 3.94553,0.55578 10.15841,-1.95372 18.54623,-7.49116 32.64058,-10.22581 53.43286,-10.3673 17.39657,-0.1184 19.86761,0.15596 24.66666,2.73866 10.60782,5.70882 14,11.78048 14,25.05852 v 8.42184 l -25.66666,0.65672 c -29.36288,0.75131 -39.54315,2.78851 -57.98242,11.603 -14.46506,6.91474 -23.05022,15.05264 -29.37013,27.84011 -4.62347,9.35496 -4.98761,10.98633 -5.4468,24.40188 -0.40121,11.72179 0.0171,16.04833 2.26488,23.42887 5.98103,19.63797 17.73844,31.56777 37.26473,37.81109 10.01826,3.20323 34.50394,3.44728 46.07728,0.45927 z m -17.17428,-41.96552 c -2.21836,-0.64542 -6.11836,-3.32463 -8.66666,-5.9538 C 562.34501,305.54119 562,304.56248 562,296.82216 c 0,-7.04883 0.57052,-9.11105 3.63041,-13.12279 6.93671,-9.09449 20.79419,-12.95365 46.70292,-13.00629 l 13,-0.0264 v 11.23394 11.23396 L 615,302.06647 c -15.74209,13.60709 -27.01945,17.5422 -39.70007,13.85288 z m 743.80197,-9.18331 c 34.7744,-29.29517 63.6173,-54.283 64.0952,-55.52849 1.2929,-3.36907 -0.8867,-5.72867 -19.8638,-21.50475 -9.5333,-7.92529 -36.256,-30.33852 -59.3838,-49.80717 -53.3082,-44.87415 -49.6392,-42.17576 -53.7147,-39.50544 -3.3288,2.18113 -26.0206,26.22522 -27.8714,29.53236 -2.2876,4.08773 -4.5484,1.99714 59.9564,55.441 22.9729,19.03362 29.2807,24.91382 28,26.10192 -0.9092,0.84348 -20.8531,17.30918 -44.3198,36.59048 -23.4667,19.28129 -43.1075,35.7065 -43.6463,36.50048 -0.5387,0.79396 -0.9887,2.31485 -1,3.37974 -0.028,2.67699 29.5884,32.06383 32.3146,32.06383 1.214,0 30.6591,-23.96877 65.4336,-53.26396 z M 309.06667,354.4 c 1.19916,-1.19916 1.6,-17.33419 1.6,-64.40387 v -62.80385 l 5.13036,-10.59615 c 6.7004,-13.83885 11.28293,-19.2628 16.27458,-19.2628 7.27639,0 7.22535,-0.53616 7.6771,80.6289 0.2786,50.0568 0.88112,75.19009 1.82992,76.33333 1.93781,2.33492 39.83034,2.4288 42.1547,0.1044 1.19827,-1.19827 1.6,-17.06527 1.6,-63.19372 v -61.59372 l 4.16954,-9.80628 c 5.13732,-12.0824 11.024,-20.82933 15.34228,-22.79687 2.76669,-1.2606 3.71934,-1.03764 6.21137,1.45367 l 2.94348,2.94263 0.37617,75.54548 c 0.2592,52.0535 0.82824,76.09018 1.82992,77.29714 2.16791,2.61216 41.5117,2.50156 43.68974,-0.1228 1.15745,-1.39464 1.45002,-22.30001 1.14296,-81.66666 -0.40666,-78.6191 -0.45672,-79.92258 -3.40551,-88.66108 -4.57925,-13.57032 -10.21768,-21.0162 -19.49623,-25.74591 -7.17044,-3.65511 -8.99058,-4.00167 -20.66666,-3.93501 -11.08547,0.0633 -13.70974,0.53852 -19.555,3.54121 -6.44283,3.30967 -13.43278,9.88561 -18.05454,16.9852 l -2.13913,3.28599 -2.63847,-5.96463 c -5.54824,-12.54256 -17.25121,-18.52503 -35.12649,-17.95637 -14.49343,0.46106 -24.3836,5.93869 -32.41895,17.95509 -2.18044,3.26072 -2.20448,3.21524 -2.20448,-4.17008 0,-4.74369 -0.6751,-8.02703 -1.85116,-9.00308 -1.24677,-1.03472 -7.66782,-1.41452 -19.66666,-1.16325 L 266,158 l -0.34489,97.33333 c -0.18971,53.53334 -0.0585,98.08334 0.29148,99 0.8843,2.31595 40.80908,2.37767 43.12008,0.0667 z m 605.33333,0 c 1.08759,-1.08759 1.6,-7.40741 1.6,-19.73333 0,-12.32592 -0.51241,-18.64575 -1.6,-19.73334 -1.13387,-1.13386 -9.09389,-1.6 -27.32251,-1.6 H 861.355 l -0.34417,-77 -0.34416,-77 h -54 -54 l -0.37194,18.48354 c -0.25138,12.49269 0.1256,19.08309 1.16326,20.33333 1.21257,1.46105 6.96494,1.8498 27.37193,1.8498 h 25.83675 v 56.66667 56.66666 H 777.6 c -20.82963,0 -29.52008,0.45342 -30.66667,1.6 -1.08758,1.08759 -1.6,7.40742 -1.6,19.73334 0,12.32592 0.51242,18.64574 1.6,19.73333 2.31166,2.31165 165.15502,2.31165 167.46667,0 z m 114.6667,0 c 1.1975,-1.19755 1.6005,-16.87645 1.6021,-62.33333 v -60.73334 l 8.9979,-10.30125 c 10.9369,-12.52104 19.1415,-18.97228 26.6646,-20.96627 11.0769,-2.93588 21.1994,2.8922 24.2017,13.93419 0.9537,3.50775 1.4527,28.17591 1.4575,72.06667 0.01,50.11746 0.4059,67.13172 1.6075,68.33333 1.1232,1.12323 8.5926,1.6 25.0666,1.6 16.4741,0 23.9435,-0.47677 25.0667,-1.6 1.2043,-1.20429 1.5885,-18.599 1.5535,-70.33333 -0.051,-75.91975 -0.602,-82.7752 -7.9015,-98.37372 -6.5183,-13.92932 -11.8488,-19.46906 -25.0081,-25.98975 -11.1517,-5.52591 -11.9537,-5.71305 -26.4526,-6.17332 -11.2293,-0.35647 -16.8992,0.0877 -22.7718,1.784 -11.1618,3.22404 -24.2153,10.40977 -31.3774,17.27273 -3.3922,3.25051 -6.5294,5.54828 -6.9715,5.10615 -0.4422,-0.44213 -0.8039,-4.5304 -0.8039,-9.08505 0,-5.4277 -0.6362,-8.80914 -1.8462,-9.81334 -1.2592,-1.04506 -8.3593,-1.41488 -22.33329,-1.16326 L 979.33333,158 l -0.34489,97.33333 c -0.18971,53.53334 -0.0585,98.08334 0.29148,99 0.88863,2.32727 47.46378,2.38963 49.78678,0.0667 z M 848.28208,136.34955 c 9.99044,-5.61882 14.81344,-13.68358 15.50527,-25.92706 1.22293,-21.642986 -11.88456,-35.711269 -33.30176,-35.742798 -12.50884,-0.01841 -21.55352,4.773967 -27.40763,14.522107 -8.59279,14.308561 -6.94672,30.999621 4.15172,42.098061 10.86185,10.86185 27.15477,12.86597 41.0524,5.04969 z"
       id="path1009"
       inkscape:connector-curvature="0" />
  </g>
</svg>
